{"glyphs":{"0":{"ha":764,"x_min":-45,"x_max":828,"o":"m 416 1139 q 186 1083 279 1137 q 44 943 94 1029 q -26 760 -7 858 q -45 561 -45 661 q 14 246 -39 370 q 158 63 66 121 q 372 5 250 5 q 600 95 496 5 q 764 316 703 185 q 828 550 825 446 l 828 582 q 809 780 828 685 q 744 958 791 876 q 616 1089 697 1040 q 416 1139 535 1139 m 389 778 q 512 715 469 774 q 555 555 555 656 q 535 451 553 493 q 483 389 517 410 q 395 361 450 368 q 310 388 345 361 q 256 458 274 416 q 239 545 239 500 q 253 653 239 600 q 300 742 267 707 q 389 778 333 778 "},"1":{"ha":347,"x_min":-89,"x_max":378,"o":"m 378 0 l 367 1272 l -56 1133 l -89 966 l 89 983 l 72 -17 l 378 0 "},"2":{"ha":764,"x_min":-56,"x_max":876,"o":"m 461 444 q 621 527 545 468 q 755 665 696 585 q 845 827 813 745 q 876 975 876 908 q 861 1050 876 1018 q 809 1127 841 1095 q 735 1180 777 1160 q 648 1208 694 1200 q 547 1217 602 1217 q 404 1204 477 1217 q 251 1172 331 1192 q 99 1128 171 1151 q -56 1078 26 1105 q -24 998 -47 1061 q 18 883 -1 935 q 48 802 37 831 q 61 772 59 772 q 123 808 67 779 q 246 866 179 838 q 355 900 313 895 q 446 917 372 902 q 557 932 520 932 q 595 928 578 932 q 604 913 604 926 q 568 836 604 888 q 473 731 532 785 q 347 640 415 677 q 214 602 279 604 q 121 545 163 581 q 40 430 79 509 q -25 209 1 351 q -50 -144 -50 66 l 800 0 l 867 211 l 200 94 q 284 292 220 170 q 461 444 348 414 "},"3":{"ha":833,"x_min":-122,"x_max":935,"o":"m 256 684 l 250 484 q 522 555 389 498 q 587 507 546 551 q 628 433 628 463 q 610 364 628 405 q 528 288 593 323 q 339 252 464 252 q 193 263 274 252 q 11 300 112 275 l -33 89 l 383 17 q 415 13 392 16 q 471 11 438 11 q 638 30 553 11 q 801 103 724 49 q 917 256 878 158 q 935 351 935 300 q 861 567 935 452 q 794 653 829 618 q 731 705 760 688 q 688 727 703 722 q 667 733 673 732 q 803 987 803 897 q 794 1028 803 1010 q 741 1106 773 1074 q 668 1158 709 1138 q 581 1186 627 1177 q 481 1194 535 1194 q 337 1182 410 1194 q 184 1149 264 1170 q 32 1105 104 1128 q -122 1055 -40 1082 q -91 976 -114 1039 q -48 860 -67 912 q -19 779 -30 808 q -5 750 -7 750 q 21 784 1 758 q 61 822 42 810 q 143 851 84 836 q 267 880 201 867 q 396 900 333 892 q 496 908 459 908 q 528 905 514 908 q 541 889 541 901 q 499 811 541 863 q 396 720 457 759 q 279 681 335 681 q 256 684 272 681 "},"4":{"ha":764,"x_min":-72,"x_max":789,"o":"m -33 1044 l -72 500 l 395 428 l 355 -183 q 438 -193 380 -187 q 543 -199 495 -199 q 656 -183 620 -199 l 789 1156 l 450 1111 l 411 639 l 216 677 l 256 1072 l -33 1044 "},"5":{"ha":833,"x_min":-172,"x_max":935,"o":"m 61 478 q 522 555 436 519 q 587 507 546 551 q 628 433 628 463 q 610 364 628 405 q 528 288 593 323 q 339 252 464 252 q 193 263 274 252 q 11 300 112 275 l -33 89 l 383 17 q 415 13 392 16 q 471 11 438 11 q 638 30 553 11 q 801 103 724 49 q 917 256 878 158 q 935 351 935 300 q 861 567 935 452 q 794 653 829 618 q 731 705 760 688 q 688 727 703 722 q 667 733 673 732 q 555 750 626 750 q 415 739 490 750 q 289 716 340 728 q 216 700 238 705 l 178 905 q 283 897 228 897 q 526 925 401 897 q 734 980 651 952 q 850 1022 817 1008 l 828 1261 q 751 1233 808 1253 q 575 1187 693 1213 q 290 1141 457 1160 q -77 1121 123 1121 q -172 1122 -139 1121 q -61 831 -151 1076 q 61 478 28 586 "},"6":{"ha":833,"x_min":-39,"x_max":873,"o":"m 583 428 q 590 379 590 406 q 574 302 590 340 q 516 236 557 265 q 406 199 475 208 q 374 197 395 197 q 249 250 290 197 q 208 361 208 302 q 211 389 208 380 q 248 451 218 416 q 314 513 277 485 q 378 549 352 541 q 414 554 397 554 q 515 522 465 554 q 583 428 565 490 m 378 717 q 464 850 392 773 q 602 982 535 926 q 700 1061 668 1038 l 872 1333 q 487 1196 646 1291 q 238 993 328 1101 q 89 772 149 886 q 28 619 58 713 q -20 431 -2 525 q -39 279 -39 338 q -33 228 -39 244 q 46 97 -9 153 q 184 8 101 40 q 375 -24 268 -24 q 422 -22 406 -24 q 517 -14 463 -22 q 637 22 572 -6 q 762 107 703 50 q 856 256 821 165 q 873 351 873 300 q 800 567 873 450 q 733 653 768 618 q 670 705 699 688 q 627 727 642 722 q 606 733 612 732 q 530 754 581 754 q 447 743 490 754 q 378 717 403 731 "},"7":{"ha":972,"x_min":-106,"x_max":1072,"o":"m 650 905 l 228 -233 l 555 -205 l 1072 1139 l -106 1234 l -106 966 l 650 905 "},"8":{"ha":833,"x_min":-47,"x_max":935,"o":"m 422 -22 q 535 -14 471 -22 q 675 22 598 -6 q 817 107 751 50 q 917 256 882 164 q 935 351 935 300 q 861 567 935 452 q 794 653 829 618 q 731 705 760 688 q 688 727 703 722 q 667 733 673 732 q 745 823 708 781 q 802 900 781 866 q 823 964 823 935 q 817 994 823 979 q 729 1115 780 1073 q 609 1175 677 1158 q 428 1200 541 1192 q 355 1203 389 1203 q 161 1164 242 1203 q 33 1028 79 1125 q 11 933 11 979 q 228 705 11 789 q 151 664 201 693 q 61 600 100 635 q -21 477 6 551 q -47 328 -47 404 q -33 228 -47 274 q 46 97 -9 153 q 184 8 101 40 q 375 -24 268 -24 q 422 -22 406 -24 m 378 507 q 522 555 451 526 q 587 507 546 551 q 628 433 628 463 q 615 362 628 401 q 557 287 603 322 q 422 252 511 252 q 389 253 400 252 q 222 345 222 267 q 233 387 222 365 q 244 406 243 406 q 244 406 244 406 q 297 468 244 433 q 378 507 349 502 m 283 933 q 404 978 317 978 q 482 967 444 978 q 539 939 521 956 q 549 921 549 931 q 533 900 549 910 q 486 873 517 889 q 406 833 454 857 q 329 871 357 857 q 288 894 301 884 q 275 914 275 903 q 283 933 275 923 "},"9":{"ha":833,"x_min":-7,"x_max":905,"o":"m 334 750 q 323 806 323 775 q 356 893 323 858 q 450 936 389 929 q 489 939 477 939 q 604 843 604 939 q 602 816 604 832 q 597 791 600 800 q 595 783 595 783 q 595 783 595 783 q 567 745 595 769 q 499 703 539 721 q 422 685 460 685 q 334 750 356 685 m 472 450 q 396 288 460 404 q 235 8 332 171 q 83 -244 138 -155 q 0 -378 28 -334 l 222 -389 q 391 -231 307 -334 q 545 -13 475 -128 q 679 226 614 103 q 778 416 743 349 q 865 661 824 504 q 905 909 905 817 q 900 961 905 945 q 821 1092 876 1034 q 681 1181 765 1149 q 492 1213 597 1213 q 444 1211 461 1213 q 303 1193 382 1211 q 140 1113 223 1175 q 11 933 57 1051 q -7 838 -7 889 q 11 736 -7 789 q 66 623 28 683 q 181 494 126 529 q 261 456 237 460 q 363 428 294 428 q 423 434 391 428 q 472 450 455 440 "},"P":{"ha":764,"x_min":-56,"x_max":869,"o":"m -56 1078 q -24 998 -47 1061 q 18 883 -1 935 q 48 802 37 831 q 61 772 59 772 q 84 798 66 777 q 115 831 103 819 q 127 844 126 844 l 439 -45 l 616 83 l 494 511 q 620 630 536 547 q 786 824 703 713 q 869 1011 869 935 q 861 1050 869 1031 q 809 1127 841 1095 q 735 1180 777 1160 q 648 1208 694 1200 q 519 1214 618 1214 q 404 1204 460 1214 q 251 1172 331 1192 q 99 1128 171 1151 q -56 1078 26 1105 m 383 889 q 534 935 445 935 q 595 928 564 935 q 606 913 606 926 q 543 806 606 880 q 439 689 481 732 l 383 889 "}," ":{"ha":694,"x_min":0,"x_max":0,"o":""},"M":{"ha":972,"x_min":5,"x_max":1072,"o":"m 100 1011 l 5 17 l 389 45 l 422 389 l 528 200 l 606 350 l 677 -56 l 1072 -94 l 817 1095 l 600 1089 l 522 889 l 433 1034 l 100 1011 "},"o":{"ha":694,"x_min":-26,"x_max":751,"o":"m 615 734 q 513 777 562 764 q 411 790 464 790 q 235 746 321 790 q 68 616 149 703 q -26 353 -26 516 q 7 173 -26 258 q 102 37 41 87 q 190 -10 138 8 q 300 -28 242 -28 q 398 -15 349 -28 q 499 27 448 -1 q 599 101 550 55 q 690 211 648 147 q 722 275 709 237 q 744 359 736 313 q 751 453 751 404 q 738 567 751 512 q 693 665 724 621 q 615 734 663 709 m 575 621 q 583 558 583 592 q 564 458 583 509 q 507 375 544 408 q 421 343 469 343 q 318 378 372 343 q 260 478 260 415 q 278 546 260 512 q 326 606 296 579 q 397 650 355 633 q 484 667 439 667 q 418 618 439 649 q 397 557 397 588 q 418 500 397 516 q 450 490 432 490 q 525 530 487 490 q 575 621 564 569 "},"K":{"ha":764,"x_min":-89,"x_max":1083,"o":"m -56 1133 l -89 966 l 11 989 l 72 -189 l 395 -183 l 378 150 l 1083 -233 l 1067 39 l 372 572 l 705 1055 l 472 1250 l 289 1055 l 289 1278 l -56 1133 "},"L":{"ha":764,"x_min":-89,"x_max":1067,"o":"m 355 89 l 289 1278 l -56 1133 l -89 966 l 11 989 l 72 -189 l 1061 -239 l 1067 56 l 355 89 "},"'":{"ha":278,"x_min":14,"x_max":296,"o":"m 268 760 l 296 1173 l 14 1213 l 123 779 l 268 760 "},"e":{"ha":694,"x_min":-16,"x_max":789,"o":"m 625 375 q 559 285 596 323 q 477 226 522 247 q 383 205 433 205 l 755 650 q 620 729 697 702 q 456 757 542 757 q 328 741 390 757 q 207 694 265 726 q 100 616 149 663 q 21 478 58 577 q -16 278 -16 380 q 50 66 -16 149 q 158 -5 88 18 q 318 -29 229 -29 q 520 -2 419 -29 q 695 73 622 26 q 789 178 769 121 l 625 375 m 437 533 l 229 275 q 213 335 218 313 q 208 380 208 357 q 250 500 208 446 q 299 535 264 520 q 370 550 333 550 q 437 533 404 550 "},"O":{"ha":1042,"x_min":-46,"x_max":1105,"o":"m 945 1017 q 628 1135 789 1135 q 437 1094 530 1135 q 256 983 343 1054 q 89 822 168 913 q -46 456 -46 668 q 6 208 -46 323 q 139 39 59 93 q 404 -40 258 -40 q 533 -23 467 -40 q 669 32 599 -6 q 809 130 740 69 q 950 278 879 190 q 1029 400 994 332 q 1085 544 1065 469 q 1105 689 1105 618 q 945 1017 1105 894 m 811 842 q 821 762 821 804 q 774 611 821 672 q 659 550 727 550 q 547 595 603 550 q 501 710 501 631 q 523 807 501 760 q 590 884 545 854 q 701 914 636 914 q 622 844 647 884 q 597 762 597 804 q 605 720 597 742 q 623 688 612 699 q 671 667 643 667 q 756 716 715 667 q 811 842 798 766 "},"N":{"ha":764,"x_min":-122,"x_max":861,"o":"m 289 1278 l -122 1305 l -117 1133 l 0 1105 l 39 -195 l 361 -189 l 355 406 l 611 -317 l 861 -300 l 850 1222 l 428 1239 l 467 828 l 289 1278 "},"R":{"ha":833,"x_min":-56,"x_max":961,"o":"m 339 911 q 424 940 380 940 q 517 922 448 940 q 533 897 533 918 q 478 789 533 857 q 378 711 422 721 l 339 911 m 503 602 q 517 604 512 604 q 559 581 539 604 q 590 535 578 558 q 606 500 602 511 l 755 -50 l 961 -5 l 844 595 q 794 712 828 663 q 722 766 760 762 q 795 858 762 814 q 848 942 828 903 q 868 1015 868 982 q 861 1050 868 1036 q 809 1127 841 1095 q 735 1180 777 1160 q 648 1208 694 1200 q 547 1217 602 1217 q 404 1204 477 1217 q 251 1172 331 1192 q 99 1128 171 1151 q -56 1078 26 1105 q -24 998 -47 1061 q 18 883 -1 935 q 48 802 37 831 q 61 772 59 772 q 82 798 64 775 q 112 832 101 820 q 127 844 123 844 l 267 -39 l 500 22 l 411 517 q 450 551 421 525 q 503 602 478 577 "},"?":{"ha":764,"x_min":-56,"x_max":868,"o":"m 214 602 l 285 397 q 509 539 366 422 q 760 794 652 657 q 868 1014 868 930 q 861 1050 868 1036 q 809 1127 841 1095 q 735 1180 777 1160 q 648 1208 694 1200 q 547 1217 602 1217 q 404 1204 477 1217 q 251 1172 331 1192 q 99 1128 171 1151 q -56 1078 26 1105 q -24 998 -47 1061 q 18 883 -1 935 q 48 802 37 831 q 61 772 59 772 q 123 808 67 779 q 246 866 179 838 q 355 900 313 895 q 446 917 372 902 q 557 932 520 932 q 595 928 578 932 q 604 913 604 926 q 568 836 604 888 q 473 731 532 785 q 347 640 415 677 q 214 602 279 604 m 389 272 q 300 216 328 267 q 272 109 272 166 q 321 12 280 47 q 428 -22 361 -22 q 481 -17 444 -22 q 519 12 499 -13 q 554 70 540 36 q 568 138 568 104 q 559 178 568 160 q 529 218 551 197 q 472 256 507 240 q 389 272 436 272 "},"W":{"ha":972,"x_min":-100,"x_max":989,"o":"m 872 -66 l 989 1211 l 606 1183 l 550 555 l 444 745 l 367 595 l 294 1000 l -100 1039 l 155 -150 l 372 -144 l 450 56 l 539 -89 l 872 -66 "},"B":{"ha":833,"x_min":-56,"x_max":997,"o":"m 372 950 q 484 974 450 968 q 551 979 517 979 q 611 972 578 979 q 650 930 650 962 q 601 829 650 891 q 502 719 552 767 q 428 650 452 671 l 372 950 m 528 294 l 494 511 q 532 531 505 515 q 589 578 558 547 q 653 529 612 573 q 694 456 694 485 q 662 379 694 420 q 528 294 630 337 m 928 589 q 813 718 868 684 q 733 755 758 752 q 869 1010 869 920 q 861 1050 869 1031 q 809 1127 841 1095 q 735 1180 777 1160 q 648 1208 694 1200 q 547 1217 602 1217 q 404 1204 477 1217 q 251 1172 331 1192 q 99 1128 171 1151 q -56 1078 26 1105 q -24 998 -47 1061 q 18 883 -1 935 q 48 802 37 831 q 61 772 59 772 q 83 799 66 777 q 112 832 100 820 q 127 844 123 844 l 350 -45 l 583 17 q 721 63 629 27 q 905 180 813 99 q 997 382 997 262 q 928 589 997 479 "},".":{"ha":278,"x_min":-5,"x_max":290,"o":"m 111 283 q 23 228 51 278 q -5 119 -5 178 q 42 24 2 59 q 150 -11 83 -11 q 203 -5 166 -11 q 241 23 220 -3 q 276 82 262 48 q 290 149 290 115 q 282 189 290 170 q 252 229 274 206 q 194 268 229 252 q 111 283 159 283 "},":":{"ha":764,"x_min":134,"x_max":568,"o":"m 389 272 q 300 216 328 267 q 272 109 272 166 q 321 12 280 47 q 428 -22 361 -22 q 481 -17 444 -22 q 519 12 499 -13 q 554 70 540 36 q 568 138 568 104 q 559 178 568 160 q 529 218 551 197 q 472 256 507 240 q 389 272 436 272 m 250 689 q 162 633 190 684 q 134 525 134 583 q 181 430 141 465 q 289 395 222 395 q 342 400 305 395 q 380 428 359 403 q 415 487 401 454 q 429 554 429 521 q 421 595 429 576 q 391 634 413 612 q 333 673 368 657 q 250 689 298 689 "},"E":{"ha":764,"x_min":-78,"x_max":1067,"o":"m 355 89 l 334 422 l 800 511 l 783 755 l 322 677 l 311 889 l 778 966 l 761 1261 l -61 1139 l -78 817 l 17 833 l 72 -189 l 1061 -239 l 1067 56 l 355 89 "},"F":{"ha":764,"x_min":-78,"x_max":778,"o":"m 72 -189 q 184 -204 109 -204 q 290 -198 233 -204 q 372 -189 348 -193 l 334 422 l 689 489 l 672 733 l 322 677 l 311 889 l 778 966 l 761 1261 l -61 1139 l -78 817 l 17 833 l 72 -189 "},"l":{"ha":347,"x_min":-89,"x_max":378,"o":"m 378 -172 l 289 1278 l -56 1133 l -89 966 l 11 989 l 72 -189 l 378 -172 "},"D":{"ha":903,"x_min":-28,"x_max":956,"o":"m 595 928 q 653 846 636 913 q 671 684 671 779 q 664 552 671 611 q 650 478 656 493 q 603 398 642 446 q 450 300 565 349 l 416 917 q 505 947 459 947 q 595 928 538 947 m 861 1050 q 525 1214 781 1214 q 267 1182 406 1214 q -28 1100 129 1151 q 3 978 -18 1078 q 35 830 24 878 q 61 772 46 783 q 94 808 66 772 q 127 844 123 844 l 222 -28 l 505 22 q 691 88 607 35 q 833 228 774 142 q 924 422 892 313 q 956 648 956 530 q 946 782 956 714 q 915 918 936 850 q 861 1050 893 986 "},"H":{"ha":764,"x_min":-122,"x_max":861,"o":"m 345 1267 l -122 1305 l -117 1133 l 0 1105 l 39 -195 l 361 -189 l 367 528 l 472 500 l 583 -294 l 861 -300 l 789 1211 l 428 1239 l 456 794 l 361 794 l 345 1267 "},"V":{"ha":972,"x_min":-106,"x_max":1139,"o":"m 17 1034 l 422 -117 l 728 -122 l 1139 1133 l 745 1156 l 561 400 l 306 1206 l -106 1234 l -100 1061 l 17 1034 "},",":{"ha":555,"x_min":-52,"x_max":481,"o":"m 481 127 l 351 174 l -52 -142 l 207 -232 l 481 127 "},";":{"ha":625,"x_min":-52,"x_max":481,"o":"m 250 689 q 162 633 190 684 q 134 525 134 583 q 181 430 141 465 q 289 395 222 395 q 342 400 305 395 q 380 428 359 403 q 415 487 401 454 q 429 554 429 521 q 421 595 429 576 q 391 634 413 612 q 333 673 368 657 q 250 689 298 689 m 481 127 l 351 174 l -52 -142 l 207 -232 l 481 127 "},"S":{"ha":764,"x_min":-134,"x_max":889,"o":"m -28 1050 q -53 942 -53 997 q 27 727 -53 835 q 213 538 106 620 q 406 411 319 456 q 547 281 547 336 q 517 233 547 256 q 469 221 500 221 q 424 226 443 221 q 352 245 404 231 q 278 261 300 259 q 111 320 219 268 q -17 389 2 373 q -33 354 -20 389 q -62 274 -46 319 q -101 166 -78 229 q -134 83 -123 104 q 11 37 -71 63 q 168 -9 94 11 q 322 -42 242 -29 q 465 -56 401 -56 q 656 -16 576 -56 q 778 111 736 24 q 800 224 800 162 q 783 335 800 276 q 728 450 766 393 q 624 565 691 507 q 467 667 557 622 q 377 715 422 688 q 294 771 332 743 q 234 828 257 800 q 211 882 211 857 q 239 928 211 908 q 286 940 255 940 q 390 921 320 940 q 478 900 459 902 q 587 867 520 895 q 710 808 654 838 q 772 772 767 778 q 825 908 777 772 q 889 1078 874 1044 q 556 1176 696 1140 q 289 1211 416 1211 q -28 1050 48 1211 "},"´":{"ha":764,"x_min":89,"x_max":606,"o":"m 89 1022 l 167 900 l 606 983 l 450 1222 l 89 1022 "},"`":{"ha":764,"x_min":89,"x_max":606,"o":"m 606 1022 l 244 1222 l 89 983 l 528 900 l 606 1022 "},"T":{"ha":764,"x_min":-134,"x_max":972,"o":"m 628 895 l 972 922 l 956 1217 l -127 1145 l -134 878 l 289 884 l 334 11 q 409 -6 358 1 q 522 -14 460 -12 q 625 -17 585 -17 l 667 -17 l 628 895 "},"I":{"ha":764,"x_min":-78,"x_max":789,"o":"m 444 311 l 494 911 l 778 966 l 761 1261 l -61 1139 l -78 817 l 216 867 l 189 278 l 0 272 l -33 11 l 783 11 l 789 306 l 444 311 "},"~":{"ha":764,"x_min":-11,"x_max":728,"o":"m -11 1034 q 168 1069 69 1069 q 279 1054 229 1069 q 355 1006 330 1038 q 433 983 374 983 q 591 1006 500 983 q 728 1044 682 1029 l 694 1283 q 660 1227 694 1256 q 572 1179 625 1198 q 467 1160 519 1160 q 339 1211 383 1160 q 222 1260 296 1260 q 95 1233 156 1260 q 5 1189 34 1206 l -11 1034 "},"˜":{"ha":764,"x_min":-11,"x_max":728,"o":"m -11 1034 q 168 1069 69 1069 q 279 1054 229 1069 q 355 1006 330 1038 q 433 983 374 983 q 591 1006 500 983 q 728 1044 682 1029 l 694 1283 q 660 1227 694 1256 q 572 1179 625 1198 q 467 1160 519 1160 q 339 1211 383 1160 q 222 1260 296 1260 q 95 1233 156 1260 q 5 1189 34 1206 l -11 1034 "},"Q":{"ha":694,"x_min":-16,"x_max":933,"o":"m 478 717 q 532 579 532 681 q 508 450 532 516 q 443 340 485 383 q 350 297 401 297 q 328 300 342 297 q 279 317 296 307 q 254 343 261 328 q 246 375 247 357 q 244 406 245 393 q 282 536 244 460 q 373 667 321 612 q 460 722 425 722 q 478 717 470 722 m 522 41 q 618 -1 570 41 q 696 -86 666 -43 q 739 -150 727 -129 l 933 -5 q 862 100 909 50 q 773 181 814 151 q 715 222 733 212 q 766 322 749 277 q 810 545 810 430 q 764 767 810 663 q 639 939 719 871 q 563 979 611 964 q 460 994 515 994 q 313 967 387 994 q 173 879 240 940 q 61 722 106 817 q 7 555 31 658 q -16 358 -16 453 q 6 202 -16 272 q 78 89 28 132 q 329 -8 191 -8 q 522 41 427 -8 "},"Y":{"ha":972,"x_min":-106,"x_max":1072,"o":"m 39 1050 l 428 339 l 228 -233 l 555 -205 l 1072 1139 l 745 1156 l 583 689 l 306 1206 l -106 1234 l -100 1061 l 39 1050 "},"\"":{"ha":694,"x_min":-56,"x_max":643,"o":"m 199 760 l 227 1173 l -56 1213 l 54 779 l 199 760 m 615 760 l 643 1173 l 361 1213 l 471 779 l 615 760 "},"‘":{"ha":278,"x_min":14,"x_max":296,"o":"m 268 760 l 296 1173 l 14 1213 l 123 779 l 268 760 "},"’":{"ha":278,"x_min":14,"x_max":296,"o":"m 268 760 l 296 1173 l 14 1213 l 123 779 l 268 760 "},"“":{"ha":694,"x_min":-56,"x_max":643,"o":"m 199 760 l 227 1173 l -56 1213 l 54 779 l 199 760 m 615 760 l 643 1173 l 361 1213 l 471 779 l 615 760 "},"”":{"ha":694,"x_min":-56,"x_max":643,"o":"m 199 760 l 227 1173 l -56 1213 l 54 779 l 199 760 m 615 760 l 643 1173 l 361 1213 l 471 779 l 615 760 "},"y":{"ha":903,"x_min":-56,"x_max":956,"o":"m -56 661 l 339 -66 l 183 -489 l 450 -589 l 956 633 l 656 750 l 489 283 l 216 789 l -56 661 "},"i":{"ha":347,"x_min":-56,"x_max":367,"o":"m 367 -127 l 322 872 l -22 728 l -56 561 l 45 583 l 61 -144 l 367 -127 m 144 1283 q 56 1227 84 1278 q 28 1120 28 1177 q 52 1050 33 1080 q 105 1004 72 1020 q 183 989 138 989 q 236 994 201 989 q 275 1023 254 998 q 309 1081 295 1047 q 323 1149 323 1116 q 315 1189 323 1171 q 285 1229 307 1206 q 228 1267 262 1251 q 144 1283 193 1283 "},"U":{"ha":903,"x_min":-122,"x_max":958,"o":"m 345 1267 l -122 1305 l -117 1133 l 0 1105 q -16 825 -16 987 q -7 609 -16 719 q 19 395 1 499 q 67 217 38 291 q 139 106 97 142 q 289 24 203 52 q 464 -4 376 -4 q 661 41 581 -4 q 751 113 699 64 q 846 219 802 161 q 905 322 890 277 q 946 522 934 408 q 958 766 958 635 q 950 1004 958 884 q 928 1211 941 1123 l 567 1239 q 574 1124 568 1210 q 585 961 580 1038 q 593 820 590 884 q 596 686 596 755 q 567 439 596 513 q 528 371 551 397 q 481 345 505 345 q 406 422 440 345 q 375 575 390 457 q 350 845 360 693 q 340 1121 340 997 q 345 1267 340 1204 "},"h":{"ha":833,"x_min":-17,"x_max":897,"o":"m 306 783 l 261 1317 l -17 1283 l 1 399 q 14 293 11 340 q 18 191 17 247 q 21 81 19 134 q 28 -11 22 28 l 361 28 q 349 293 349 189 q 352 382 349 345 q 361 451 355 420 q 378 505 368 481 q 456 603 420 603 q 511 533 483 603 q 585 81 585 347 q 583 -17 585 17 l 867 0 q 890 161 882 98 q 897 281 897 224 q 861 533 897 389 q 815 632 850 581 q 736 725 781 683 q 656 789 692 768 q 515 823 596 823 q 306 783 427 823 "},"u":{"ha":833,"x_min":0,"x_max":897,"o":"m 28 844 q 14 731 20 787 q 4 620 7 674 q 0 507 0 566 q 14 330 0 410 q 65 182 28 250 q 161 72 101 114 q 303 3 226 26 q 461 -20 380 -20 q 667 31 578 -20 q 783 144 723 63 q 861 300 844 226 q 897 519 897 446 q 893 592 897 563 q 867 761 889 621 l 583 778 q 585 685 585 745 q 581 575 585 625 q 568 483 576 525 q 545 394 560 441 q 511 300 530 348 q 456 231 483 231 q 378 328 420 231 q 361 381 368 350 q 352 450 355 412 q 349 541 349 488 q 361 806 349 645 l 28 844 "},"n":{"ha":833,"x_min":-11,"x_max":897,"o":"m 294 783 l 256 828 l -11 794 l 1 399 q -1 326 -1 351 q 2 217 -1 268 q 13 108 6 167 q 28 -11 20 49 l 361 28 q 349 293 349 189 q 352 382 349 345 q 361 451 355 420 q 378 505 368 481 q 456 603 420 603 q 511 533 483 603 q 585 81 585 347 q 583 -17 585 17 l 867 0 q 890 161 882 98 q 897 281 897 224 q 861 533 897 389 q 774 688 844 604 q 644 806 705 771 q 528 835 594 835 q 424 822 478 835 q 294 783 370 808 "},"m":{"ha":1181,"x_min":-11,"x_max":1244,"o":"m 614 778 q 469 818 545 818 q 294 783 401 818 l 256 828 l -11 794 l 1 399 q -1 326 -1 351 q 2 217 -1 268 q 13 108 6 167 q 28 -11 20 49 l 361 28 q 349 293 349 189 q 352 382 349 345 q 361 451 355 420 q 378 505 368 481 q 406 571 393 539 q 421 603 418 603 q 428 579 423 603 q 441 533 433 555 q 515 81 515 347 q 514 -17 515 17 l 798 0 q 821 173 814 116 q 828 281 828 229 q 791 533 828 386 q 782 562 787 551 q 779 583 779 571 q 794 604 779 604 q 827 585 808 604 q 859 533 845 566 q 932 81 932 347 q 930 -17 932 17 l 1214 0 q 1237 161 1230 98 q 1244 281 1244 224 q 1208 533 1244 389 q 1122 688 1192 604 q 991 806 1052 771 q 875 833 943 833 q 614 778 789 833 "},"p":{"ha":694,"x_min":-139,"x_max":751,"o":"m 294 -26 q 431 -3 363 -26 q 566 73 499 20 q 690 211 633 125 q 722 275 709 237 q 744 359 736 313 q 751 453 751 404 q 738 567 751 512 q 693 665 724 621 q 615 734 663 709 q 411 791 511 791 q 248 753 328 791 l 239 878 l -106 733 l -139 567 l -39 589 l -26 349 q -24 298 -26 332 l -24 292 l 22 -589 l 328 -572 l 294 -26 m 262 503 q 303 581 271 543 q 382 643 335 620 q 484 667 429 667 q 418 618 439 649 q 397 557 397 588 q 418 500 397 516 q 450 490 432 490 q 525 530 487 490 q 575 621 564 569 q 583 558 583 592 q 564 458 583 509 q 507 375 544 408 q 421 343 469 343 q 318 378 372 343 q 280 428 297 392 q 262 503 262 465 "},"q":{"ha":694,"x_min":-26,"x_max":761,"o":"m 722 861 l 519 775 q 412 790 470 790 q 68 616 231 790 q -26 353 -26 516 q 7 173 -26 258 q 102 37 41 87 q 190 -10 139 7 q 300 -28 241 -28 q 473 14 389 -28 l 505 -606 l 761 -600 l 722 861 m 497 366 q 419 355 459 355 q 323 378 358 355 q 265 478 265 415 q 290 557 265 517 q 356 625 315 597 q 449 663 398 654 q 432 620 442 649 q 421 562 421 590 q 436 524 421 537 q 494 511 451 511 l 497 366 "},"b":{"ha":729,"x_min":-89,"x_max":785,"o":"m 306 12 q 321 12 315 12 q 334 11 327 12 q 467 35 400 11 q 601 113 534 59 q 724 250 667 166 q 755 315 742 277 q 777 398 769 353 q 785 492 785 443 q 752 660 785 585 q 648 774 719 736 q 443 831 543 831 q 294 799 371 831 l 289 1278 l -56 1133 l -89 966 l 11 989 l 0 -28 l 306 -11 l 306 12 m 298 554 q 341 628 310 593 q 419 684 373 663 q 517 705 465 705 q 451 658 471 688 q 431 596 431 628 q 452 539 431 554 q 484 529 465 529 q 558 568 520 529 q 608 660 596 608 q 616 597 616 630 q 597 497 616 547 q 540 414 577 446 q 454 382 503 382 q 351 416 407 382 q 300 482 311 443 l 298 554 "},"d":{"ha":694,"x_min":-26,"x_max":755,"o":"m 450 664 q 397 562 397 629 q 418 500 397 516 q 450 490 432 490 l 450 346 q 422 343 433 343 q 318 378 370 343 q 260 478 260 416 q 274 539 260 508 q 315 595 289 570 q 377 640 340 621 q 450 664 413 659 m 444 1322 l 450 789 q 412 790 437 790 q 236 746 322 790 q 68 616 149 702 q -26 353 -26 516 q 7 173 -26 258 q 102 37 41 87 q 190 -10 139 7 q 300 -28 241 -28 q 450 3 376 -28 l 450 -39 l 755 -22 l 747 393 q 750 452 750 412 q 745 532 750 496 l 728 1450 l 444 1322 "},"v":{"ha":972,"x_min":-72,"x_max":966,"o":"m -72 850 l 294 -83 l 616 -94 l 966 789 l 623 822 l 461 406 l 300 833 l -72 850 "},"^":{"ha":764,"x_min":-28,"x_max":761,"o":"m 355 1289 l 0 1173 l -28 983 l 355 1100 l 761 966 l 745 1156 l 355 1289 "},"ˆ":{"ha":764,"x_min":-28,"x_max":761,"o":"m 355 1289 l 0 1173 l -28 983 l 355 1100 l 761 966 l 745 1156 l 355 1289 "},"w":{"ha":1389,"x_min":-72,"x_max":1522,"o":"m 739 211 l 850 -83 l 1173 -94 l 1522 789 l 1178 822 l 1017 406 l 856 833 l 484 850 l 557 664 l 461 406 l 300 833 l -72 850 l 294 -83 l 611 -78 l 739 211 "},"r":{"ha":764,"x_min":-11,"x_max":800,"o":"m 800 661 q 746 770 784 731 q 644 844 709 808 q 526 875 593 875 q 458 868 493 875 q 382 850 422 861 q 294 822 342 838 l 256 867 l -11 833 l 1 437 q -1 363 -1 390 q 28 -11 -1 199 l 361 28 q 349 307 349 189 q 378 545 349 477 q 453 615 408 615 q 514 583 484 615 q 561 505 543 551 l 800 661 "},"C":{"ha":833,"x_min":-57,"x_max":936,"o":"m 936 856 q 869 970 920 917 q 747 1060 818 1023 q 590 1118 675 1097 q 416 1139 505 1139 q 190 1090 283 1137 q 43 969 96 1043 q -34 802 -10 895 q -57 610 -57 710 q -56 550 -57 570 q 20 232 -42 349 q 180 65 83 114 q 406 17 277 17 q 590 43 497 17 q 768 138 683 68 q 904 332 852 208 q 822 399 878 353 q 712 490 766 444 q 656 541 659 535 q 553 424 612 453 q 439 395 493 395 q 338 447 366 398 q 306 550 309 496 q 347 677 306 621 q 428 733 389 733 q 632 657 602 733 l 936 856 "},"s":{"ha":764,"x_min":-106,"x_max":867,"o":"m 761 517 q 781 552 764 517 q 829 664 797 587 q 867 750 862 740 q 514 857 644 823 q 262 892 385 892 q 81 854 157 892 q -33 733 5 817 q -68 590 -68 659 q -8 439 -68 500 q 137 347 52 378 q 306 306 222 315 q 440 279 380 296 q 500 244 500 262 q 458 229 497 238 q 375 220 418 220 q 239 244 304 220 q 152 272 209 256 q 66 298 96 287 q 17 328 37 309 q -8 273 17 323 q -61 172 -34 224 q -106 83 -88 120 q 42 35 -37 61 q 192 -10 121 9 q 338 -42 262 -29 q 476 -56 415 -56 q 778 111 699 -56 q 796 197 796 151 q 760 325 796 262 q 644 433 724 387 q 433 494 564 480 q 272 530 338 506 q 205 587 205 554 q 239 633 205 608 q 272 640 250 640 q 387 624 313 640 q 523 590 461 608 q 662 548 584 572 q 761 517 741 524 "},"c":{"ha":694,"x_min":-58,"x_max":746,"o":"m 587 806 q 390 863 497 863 q 286 847 338 863 q 185 799 235 831 q 92 714 136 766 q 9 589 47 662 q -39 464 -19 532 q -58 325 -58 395 q -34 196 -58 257 q 43 89 -10 135 q 310 -9 159 -9 q 500 28 404 -9 q 644 134 579 58 q 726 256 709 210 q 746 310 742 296 l 494 361 q 453 282 478 317 q 394 227 429 248 q 317 205 359 205 q 222 372 227 222 q 395 578 222 562 q 457 567 427 578 q 493 522 487 556 l 745 578 q 720 638 739 596 q 666 729 701 680 q 587 806 631 778 "},"x":{"ha":972,"x_min":-72,"x_max":1044,"o":"m 486 129 l 650 -83 l 1000 -94 l 661 354 l 1044 850 l 672 833 l 486 587 l 300 833 l -72 850 l 311 354 l -28 -94 l 322 -83 l 486 129 "},"!":{"ha":278,"x_min":-78,"x_max":328,"o":"m 111 283 q 23 228 51 278 q -5 119 -5 178 q 42 24 2 59 q 150 -11 83 -11 q 203 -5 166 -11 q 241 23 220 -3 q 276 82 262 48 q 290 149 290 115 q 282 189 290 170 q 252 229 274 206 q 194 268 229 252 q 111 283 159 283 m 11 472 l 244 494 l 328 1344 l -78 1222 l 11 472 "},"k":{"ha":764,"x_min":-89,"x_max":917,"o":"m -56 1133 l -89 966 l 11 989 l 72 -189 l 395 -183 l 378 150 l 911 -233 l 895 39 l 533 311 l 917 606 l 623 650 l 339 494 l 289 1278 l -56 1133 "},"g":{"ha":694,"x_min":-26,"x_max":745,"o":"m 497 366 q 419 355 459 355 q 323 378 358 355 q 265 478 265 415 q 290 557 265 517 q 356 625 315 597 q 449 663 398 654 q 432 620 442 649 q 421 562 421 590 q 436 524 421 537 q 494 511 451 511 l 497 366 m 745 11 l 728 878 l 519 775 q 412 790 470 790 q 68 616 231 790 q -26 353 -26 516 q 7 173 -26 258 q 102 37 41 87 q 190 -10 139 7 q 300 -28 241 -28 q 473 14 389 -28 q 486 -167 486 -79 q 478 -283 486 -238 q 444 -342 471 -321 q 380 -363 416 -363 q 310 -339 340 -363 q 281 -273 281 -315 q 283 -250 281 -267 l 61 -106 q 25 -194 47 -132 q 4 -330 4 -256 q 23 -438 4 -387 q 86 -531 41 -489 q 211 -600 132 -574 q 361 -627 292 -627 q 549 -580 468 -627 q 684 -467 630 -533 q 733 -308 721 -421 q 745 -65 745 -195 l 745 11 "},"G":{"ha":833,"x_min":-57,"x_max":936,"o":"m 511 411 q 487 405 499 408 q 460 398 475 402 q 439 395 445 395 q 338 447 366 398 q 306 550 309 496 q 347 677 306 621 q 428 733 389 733 q 632 657 602 733 l 936 856 q 869 970 920 917 q 747 1060 818 1023 q 590 1118 675 1097 q 416 1139 505 1139 q 190 1090 283 1137 q 43 969 96 1043 q -34 802 -10 895 q -57 610 -57 710 q -56 550 -57 570 q 20 232 -42 349 q 180 65 83 114 q 406 17 277 17 q 583 39 539 17 q 541 -97 574 7 q 489 -256 507 -200 l 833 -283 l 922 467 l 539 611 l 461 433 l 511 411 "},"a":{"ha":694,"x_min":-26,"x_max":755,"o":"m 450 664 q 397 562 397 629 q 418 500 397 516 q 450 490 432 490 l 450 346 q 422 343 433 343 q 318 378 370 343 q 260 478 260 416 q 274 539 260 508 q 315 595 289 570 q 377 640 340 621 q 450 664 413 659 m 456 783 l 450 789 q 412 790 437 790 q 236 746 322 790 q 68 616 149 702 q -26 353 -26 516 q 7 173 -26 258 q 102 37 41 87 q 190 -10 139 7 q 300 -28 241 -28 q 450 3 376 -28 l 450 -39 l 755 -22 l 747 393 q 750 452 750 412 q 745 532 750 496 l 739 911 l 456 783 "},"j":{"ha":694,"x_min":4,"x_max":745,"o":"m 517 1289 q 429 1233 457 1284 q 400 1125 400 1183 q 425 1055 405 1085 q 477 1010 444 1025 q 555 994 511 994 q 608 1000 575 994 q 647 1028 626 1003 q 682 1087 667 1054 q 696 1154 696 1121 q 688 1194 696 1176 q 628 1258 673 1226 q 517 1289 583 1289 m 745 11 l 722 872 l 378 728 l 345 561 l 444 583 l 473 14 q 486 -167 486 -79 q 478 -283 486 -238 q 444 -342 471 -321 q 380 -363 416 -363 q 310 -339 340 -363 q 281 -273 281 -315 q 283 -250 281 -267 l 61 -106 q 25 -194 47 -132 q 4 -330 4 -256 q 23 -438 4 -387 q 86 -531 41 -489 q 211 -600 132 -574 q 361 -627 292 -627 q 549 -580 468 -627 q 684 -467 630 -533 q 733 -308 721 -421 q 745 -65 745 -195 l 745 11 "},"z":{"ha":972,"x_min":-39,"x_max":1044,"o":"m 1000 -94 l 1017 161 l 494 161 l 1044 850 l -39 856 l 0 545 l 472 550 l -28 -94 l 1000 -94 "},"t":{"ha":868,"x_min":-110,"x_max":880,"o":"m 127 1189 l 143 878 l -110 895 l -60 589 l 140 595 l 140 518 q 144 365 140 441 q 162 218 149 288 q 201 117 176 147 q 336 4 255 51 q 524 -43 417 -43 q 673 -17 594 -43 q 833 92 787 20 q 880 253 880 164 q 859 389 880 327 q 823 478 838 452 l 602 334 q 604 310 604 316 q 574 245 604 269 q 504 221 544 221 q 441 241 468 221 q 407 300 414 262 q 399 416 399 346 q 411 597 399 501 l 640 600 l 640 861 l 419 867 l 424 1322 l 127 1189 "},"f":{"ha":764,"x_min":-129,"x_max":875,"o":"m 414 505 l 610 511 l 610 772 l 431 772 q 438 843 433 799 q 446 912 442 887 q 453 945 449 937 q 528 1015 483 1015 q 589 982 559 1015 q 636 905 619 949 l 875 1061 q 828 1167 858 1134 q 736 1227 798 1200 q 576 1257 675 1257 q 380 1227 475 1257 q 140 1076 203 1176 q 77 863 77 975 q 81 789 77 840 l -129 811 l -90 500 l 69 500 q 72 283 71 358 q 76 127 73 209 q 83 -50 79 46 q 92 -178 88 -145 l 425 -139 q 419 -15 422 -100 q 414 173 416 70 q 412 342 412 276 q 414 505 412 454 "},"Z":{"ha":972,"x_min":-111,"x_max":1061,"o":"m 1039 -33 l 1055 222 l 517 183 l 1061 1356 l -111 1295 l -72 983 l 478 1028 l -28 -94 l 1039 -33 "},"X":{"ha":972,"x_min":-122,"x_max":1078,"o":"m 489 228 l 650 -83 l 1034 -172 l 684 526 l 1078 1189 l 705 1173 l 522 850 l 334 1173 l -45 1227 l 361 550 l -122 -233 l 228 -222 l 489 228 "},"J":{"ha":903,"x_min":-11,"x_max":958,"o":"m 5 606 q -11 412 -11 474 q 22 246 -11 315 q 139 106 56 177 q 289 24 203 52 q 464 -4 376 -4 q 661 41 581 -4 q 751 113 699 64 q 846 219 802 161 q 905 322 890 277 q 930 420 920 365 q 946 536 941 475 q 956 663 952 596 q 958 806 958 730 q 950 1070 958 938 q 928 1289 941 1202 l 567 1317 q 580 1091 570 1237 q 593 869 589 945 q 596 708 596 792 q 567 439 596 513 q 532 372 551 396 q 488 347 513 347 q 395 411 449 347 q 364 460 375 434 q 350 513 353 486 q 346 576 346 540 q 347 621 346 593 q 350 689 349 650 l 5 606 "},"A":{"ha":764,"x_min":-306,"x_max":1100,"o":"m 433 1250 l -306 -222 l 45 -205 l 322 383 l 500 355 l 817 -383 l 1100 -355 l 433 1250 m 334 545 l 428 783 l 494 522 l 334 545 "},"/":{"ha":972,"x_min":-122,"x_max":1078,"o":"m 1078 1189 l 705 1173 l -122 -233 l 228 -222 l 1078 1189 "},"\\":{"ha":972,"x_min":-45,"x_max":1034,"o":"m 650 -83 l 1034 -172 l 334 1173 l -45 1227 l 650 -83 "},"*":{"ha":555,"x_min":-94,"x_max":616,"o":"m 155 1295 l 161 1117 l 39 1234 l -94 1078 l 111 939 l -50 755 l 94 628 l 239 833 l 389 633 l 572 684 l 416 922 l 616 1067 l 500 1206 l 367 1089 l 367 1289 l 155 1295 "},"-":{"ha":625,"x_min":-5,"x_max":661,"o":"m 11 722 l -5 539 l 639 561 l 661 783 l 11 722 "},"=":{"ha":625,"x_min":-11,"x_max":661,"o":"m 11 839 l -5 656 l 639 677 l 661 900 l 11 839 m 5 545 l -11 361 l 633 383 l 656 606 l 5 545 "},"[":{"ha":555,"x_min":-45,"x_max":628,"o":"m 0 1211 l -45 -294 l 511 -205 l 528 78 l 283 33 l 345 950 l 606 989 l 628 1283 l 0 1211 "},"]":{"ha":625,"x_min":-28,"x_max":628,"o":"m 11 1183 l -28 917 l 334 950 l 294 183 q 191 173 286 183 q 33 155 97 162 l 5 -150 l 572 -89 l 628 1267 l 11 1183 "},"$":{"ha":764,"x_min":-134,"x_max":889,"o":"m 449 -56 q 652 -18 568 -56 q 778 111 735 20 q 800 224 800 162 q 783 335 800 276 q 728 450 766 393 q 624 565 691 507 q 467 667 557 622 q 377 715 422 688 q 294 771 332 743 q 234 828 257 800 q 211 882 211 857 q 239 928 211 908 q 286 940 255 940 q 390 921 320 940 q 478 900 459 902 q 587 867 520 895 q 710 808 654 838 q 772 772 767 778 q 825 908 777 772 q 889 1078 874 1044 q 557 1175 668 1149 l 567 1333 l 334 1356 q 327 1297 334 1348 q 317 1211 321 1246 q 163 1196 229 1211 q 48 1145 96 1181 q -28 1050 1 1110 q -53 942 -53 997 q 27 727 -53 835 q 213 538 106 620 q 406 411 319 456 q 547 281 547 336 q 517 233 547 256 q 469 221 500 221 q 424 226 443 221 q 352 245 404 231 q 278 261 300 259 q 111 320 219 268 q -17 389 2 373 q -33 354 -20 389 q -62 274 -46 319 q -101 166 -78 229 q -134 83 -123 104 q -7 42 -62 60 q 107 6 47 24 q 215 -22 168 -12 l 200 -189 l 456 -222 q 449 -154 453 -201 q 446 -86 446 -108 q 449 -56 446 -61 "},"à":{"ha":694,"x_min":-26,"x_max":755,"o":"m 450 664 q 397 562 397 629 q 418 500 397 516 q 450 490 432 490 l 450 346 q 422 343 433 343 q 318 378 370 343 q 260 478 260 416 q 274 539 260 508 q 315 595 289 570 q 377 640 340 621 q 450 664 413 659 m 456 783 l 450 789 q 412 790 437 790 q 236 746 322 790 q 68 616 149 702 q -26 353 -26 516 q 7 173 -26 258 q 102 37 41 87 q 190 -10 139 7 q 300 -28 241 -28 q 450 3 376 -28 l 450 -39 l 755 -22 l 747 393 q 750 452 750 412 q 745 532 750 496 l 739 911 l 456 783 m 606 1022 l 244 1222 l 89 983 l 528 900 l 606 1022 "},"á":{"ha":694,"x_min":-26,"x_max":755,"o":"m 450 664 q 397 562 397 629 q 418 500 397 516 q 450 490 432 490 l 450 346 q 422 343 433 343 q 318 378 370 343 q 260 478 260 416 q 274 539 260 508 q 315 595 289 570 q 377 640 340 621 q 450 664 413 659 m 456 783 l 450 789 q 412 790 437 790 q 236 746 322 790 q 68 616 149 702 q -26 353 -26 516 q 7 173 -26 258 q 102 37 41 87 q 190 -10 139 7 q 300 -28 241 -28 q 450 3 376 -28 l 450 -39 l 755 -22 l 747 393 q 750 452 750 412 q 745 532 750 496 l 739 911 l 456 783 m 89 1022 l 167 900 l 606 983 l 450 1222 l 89 1022 "},"â":{"ha":694,"x_min":-28,"x_max":761,"o":"m 450 664 q 397 562 397 629 q 418 500 397 516 q 450 490 432 490 l 450 346 q 422 343 433 343 q 318 378 370 343 q 260 478 260 416 q 274 539 260 508 q 315 595 289 570 q 377 640 340 621 q 450 664 413 659 m 456 783 l 450 789 q 412 790 437 790 q 236 746 322 790 q 68 616 149 702 q -26 353 -26 516 q 7 173 -26 258 q 102 37 41 87 q 190 -10 139 7 q 300 -28 241 -28 q 450 3 376 -28 l 450 -39 l 755 -22 l 747 393 q 750 452 750 412 q 745 532 750 496 l 739 911 l 456 783 m 355 1289 l 0 1173 l -28 983 l 355 1100 l 761 966 l 745 1156 l 355 1289 "},"ã":{"ha":694,"x_min":-26,"x_max":755,"o":"m 450 664 q 397 562 397 629 q 418 500 397 516 q 450 490 432 490 l 450 346 q 422 343 433 343 q 318 378 370 343 q 260 478 260 416 q 274 539 260 508 q 315 595 289 570 q 377 640 340 621 q 450 664 413 659 m 456 783 l 450 789 q 412 790 437 790 q 236 746 322 790 q 68 616 149 702 q -26 353 -26 516 q 7 173 -26 258 q 102 37 41 87 q 190 -10 139 7 q 300 -28 241 -28 q 450 3 376 -28 l 450 -39 l 755 -22 l 747 393 q 750 452 750 412 q 745 532 750 496 l 739 911 l 456 783 m -11 1034 q 168 1069 69 1069 q 279 1054 229 1069 q 355 1006 330 1038 q 433 983 374 983 q 591 1006 500 983 q 728 1044 682 1029 l 694 1283 q 660 1227 694 1256 q 572 1179 625 1198 q 467 1160 519 1160 q 339 1211 383 1160 q 222 1260 296 1260 q 95 1233 156 1260 q 5 1189 34 1206 l -11 1034 "},"ä":{"ha":694,"x_min":-26,"x_max":755,"o":"m 450 664 q 397 562 397 629 q 418 500 397 516 q 450 490 432 490 l 450 346 q 422 343 433 343 q 318 378 370 343 q 260 478 260 416 q 274 539 260 508 q 315 595 289 570 q 377 640 340 621 q 450 664 413 659 m 456 783 l 450 789 q 412 790 437 790 q 236 746 322 790 q 68 616 149 702 q -26 353 -26 516 q 7 173 -26 258 q 102 37 41 87 q 190 -10 139 7 q 300 -28 241 -28 q 450 3 376 -28 l 450 -39 l 755 -22 l 747 393 q 750 452 750 412 q 745 532 750 496 l 739 911 l 456 783 m -22 1111 q 16 998 -22 1042 q 106 950 55 955 q 202 991 162 950 q 261 1105 241 1032 q 267 1141 267 1122 q 215 1240 267 1200 q 89 1283 164 1280 q -2 1219 19 1283 q -22 1111 -22 1154 m 428 1128 q 446 1046 428 1082 q 493 990 464 1010 q 555 966 522 970 q 652 1008 612 966 q 711 1122 692 1050 q 717 1158 717 1139 q 666 1257 717 1217 q 539 1300 614 1297 q 449 1236 469 1300 q 428 1128 428 1171 "},"å":{"ha":694,"x_min":-26,"x_max":755,"o":"m 450 664 q 397 562 397 629 q 418 500 397 516 q 450 490 432 490 l 450 346 q 422 343 433 343 q 318 378 370 343 q 260 478 260 416 q 274 539 260 508 q 315 595 289 570 q 377 640 340 621 q 450 664 413 659 m 456 783 l 450 789 q 412 790 437 790 q 236 746 322 790 q 68 616 149 702 q -26 353 -26 516 q 7 173 -26 258 q 102 37 41 87 q 190 -10 139 7 q 300 -28 241 -28 q 450 3 376 -28 l 450 -39 l 755 -22 l 747 393 q 750 452 750 412 q 745 532 750 496 l 739 911 l 456 783 m 228 1128 q 246 1046 228 1082 q 293 990 264 1010 q 355 966 321 970 q 452 1008 412 966 q 511 1122 492 1050 q 517 1158 517 1139 q 466 1257 517 1217 q 339 1300 414 1297 q 249 1236 269 1300 q 228 1128 228 1171 "},"_":{"ha":833,"x_min":-66,"x_max":889,"o":"m -5 61 l -66 -66 q 108 -71 -19 -68 q 376 -79 235 -75 q 659 -85 516 -83 q 856 -89 802 -89 l 889 33 l -5 61 "},"<":{"ha":694,"x_min":5,"x_max":822,"o":"m 5 728 l 733 361 l 766 600 l 444 711 l 794 817 l 822 1050 l 5 728 "},">":{"ha":694,"x_min":-58,"x_max":758,"o":"m 758 728 l -58 1050 l -31 817 l 319 711 l -3 600 l 31 361 l 758 728 "},"è":{"ha":694,"x_min":-16,"x_max":789,"o":"m 625 375 q 559 285 596 323 q 477 226 522 247 q 383 205 433 205 l 755 650 q 620 729 697 702 q 456 757 542 757 q 328 741 390 757 q 207 694 265 726 q 100 616 149 663 q 21 478 58 577 q -16 278 -16 380 q 50 66 -16 149 q 158 -5 88 18 q 318 -29 229 -29 q 520 -2 419 -29 q 695 73 622 26 q 789 178 769 121 l 625 375 m 437 533 l 229 275 q 213 335 218 313 q 208 380 208 357 q 250 500 208 446 q 299 535 264 520 q 370 550 333 550 q 437 533 404 550 m 606 1022 l 244 1222 l 89 983 l 528 900 l 606 1022 "},"é":{"ha":694,"x_min":-16,"x_max":789,"o":"m 625 375 q 559 285 596 323 q 477 226 522 247 q 383 205 433 205 l 755 650 q 620 729 697 702 q 456 757 542 757 q 328 741 390 757 q 207 694 265 726 q 100 616 149 663 q 21 478 58 577 q -16 278 -16 380 q 50 66 -16 149 q 158 -5 88 18 q 318 -29 229 -29 q 520 -2 419 -29 q 695 73 622 26 q 789 178 769 121 l 625 375 m 437 533 l 229 275 q 213 335 218 313 q 208 380 208 357 q 250 500 208 446 q 299 535 264 520 q 370 550 333 550 q 437 533 404 550 m 89 1022 l 167 900 l 606 983 l 450 1222 l 89 1022 "},"ê":{"ha":694,"x_min":-28,"x_max":789,"o":"m 625 375 q 559 285 596 323 q 477 226 522 247 q 383 205 433 205 l 755 650 q 620 729 697 702 q 456 757 542 757 q 328 741 390 757 q 207 694 265 726 q 100 616 149 663 q 21 478 58 577 q -16 278 -16 380 q 50 66 -16 149 q 158 -5 88 18 q 318 -29 229 -29 q 520 -2 419 -29 q 695 73 622 26 q 789 178 769 121 l 625 375 m 437 533 l 229 275 q 213 335 218 313 q 208 380 208 357 q 250 500 208 446 q 299 535 264 520 q 370 550 333 550 q 437 533 404 550 m 355 1289 l 0 1173 l -28 983 l 355 1100 l 761 966 l 745 1156 l 355 1289 "},"ë":{"ha":694,"x_min":-22,"x_max":789,"o":"m 625 375 q 559 285 596 323 q 477 226 522 247 q 383 205 433 205 l 755 650 q 620 729 697 702 q 456 757 542 757 q 328 741 390 757 q 207 694 265 726 q 100 616 149 663 q 21 478 58 577 q -16 278 -16 380 q 50 66 -16 149 q 158 -5 88 18 q 318 -29 229 -29 q 520 -2 419 -29 q 695 73 622 26 q 789 178 769 121 l 625 375 m 437 533 l 229 275 q 213 335 218 313 q 208 380 208 357 q 250 500 208 446 q 299 535 264 520 q 370 550 333 550 q 437 533 404 550 m -22 1111 q 16 998 -22 1042 q 106 950 55 955 q 202 991 162 950 q 261 1105 241 1032 q 267 1141 267 1122 q 215 1240 267 1200 q 89 1283 164 1280 q -2 1219 19 1283 q -22 1111 -22 1154 m 428 1128 q 446 1046 428 1082 q 493 990 464 1010 q 555 966 522 970 q 652 1008 612 966 q 711 1122 692 1050 q 717 1158 717 1139 q 666 1257 717 1217 q 539 1300 614 1297 q 449 1236 469 1300 q 428 1128 428 1171 "},"+":{"ha":625,"x_min":-5,"x_max":661,"o":"m 11 722 l -5 539 l 200 547 l 172 328 l 383 328 l 411 554 l 639 561 l 661 783 l 450 761 l 472 956 l 256 956 l 239 743 l 11 722 "},"&":{"ha":833,"x_min":-102,"x_max":956,"o":"m 278 17 l 261 -100 l 489 -100 l 510 28 l 867 89 l 822 300 q 494 252 631 252 q 303 288 368 252 q 222 364 239 324 q 205 433 205 404 q 247 507 205 463 q 311 555 289 551 q 583 484 443 499 l 578 684 q 553 681 562 681 q 436 720 498 681 q 334 810 375 759 q 293 889 293 862 q 306 905 293 901 q 338 908 319 908 q 439 900 374 908 q 568 880 503 892 q 691 851 632 867 q 772 822 751 836 q 812 785 791 812 q 839 750 833 758 q 892 886 843 750 q 956 1055 941 1021 q 852 1089 923 1066 q 715 1131 781 1112 q 606 1160 650 1149 l 639 1317 l 361 1317 l 355 1193 q 161 1155 242 1193 q 39 1028 80 1117 q 31 987 31 1008 q 167 733 31 897 q 146 727 161 732 q 104 706 132 722 q 41 654 76 689 q -28 567 5 619 q -102 351 -102 450 q -83 256 -102 301 q 61 84 -39 139 q 278 17 161 29 "},"ì":{"ha":347,"x_min":-56,"x_max":606,"o":"m 367 -127 l 322 872 l -22 728 l -56 561 l 45 583 l 61 -144 l 367 -127 m 606 1022 l 244 1222 l 89 983 l 528 900 l 606 1022 "},"í":{"ha":347,"x_min":-56,"x_max":606,"o":"m 367 -127 l 322 872 l -22 728 l -56 561 l 45 583 l 61 -144 l 367 -127 m 89 1022 l 167 900 l 606 983 l 450 1222 l 89 1022 "},"î":{"ha":347,"x_min":-233,"x_max":555,"o":"m 367 -127 l 322 872 l -22 728 l -56 561 l 45 583 l 61 -144 l 367 -127 m 150 1272 l -205 1156 l -233 966 l 150 1083 l 555 950 l 539 1139 l 150 1272 "},"ï":{"ha":347,"x_min":-228,"x_max":511,"o":"m 367 -127 l 322 872 l -22 728 l -56 561 l 45 583 l 61 -144 l 367 -127 m -228 1117 q -189 1004 -228 1048 q -100 956 -151 960 q -4 997 -43 956 q 56 1111 36 1038 q 61 1147 61 1128 q 37 1218 61 1187 q -28 1268 13 1249 q -117 1289 -69 1287 q -207 1225 -186 1289 q -228 1117 -228 1160 m 222 1133 q 240 1052 222 1088 q 288 996 258 1016 q 350 972 317 976 q 446 1013 406 972 q 505 1128 485 1054 q 511 1164 511 1143 q 460 1262 511 1222 q 334 1305 409 1302 q 243 1241 264 1305 q 222 1133 222 1177 "},"|":{"ha":416,"x_min":0,"x_max":400,"o":"m 28 1322 l 0 -461 l 383 -400 l 400 1411 l 28 1322 "},"@":{"ha":903,"x_min":-57,"x_max":958,"o":"m 467 783 q 539 766 503 780 q 602 730 576 752 q 628 684 628 707 q 599 663 626 663 q 552 672 579 663 q 511 689 524 682 l 350 467 q 529 369 438 404 q 705 334 621 334 q 854 396 797 339 q 935 534 911 453 q 958 703 958 615 q 936 856 958 800 q 825 1000 904 935 q 638 1102 747 1065 q 416 1139 530 1139 q 190 1090 283 1137 q 43 969 96 1043 q -34 802 -10 895 q -57 610 -57 710 q -56 550 -57 570 q 15 294 -45 401 q 165 123 75 187 q 357 29 256 58 q 555 0 458 0 l 600 283 q 469 309 538 287 q 350 379 400 331 q 300 501 300 427 q 306 550 300 526 q 345 651 316 596 q 408 744 374 705 q 467 783 442 783 "},"ò":{"ha":694,"x_min":-26,"x_max":751,"o":"m 615 734 q 513 777 562 764 q 411 790 464 790 q 235 746 321 790 q 68 616 149 703 q -26 353 -26 516 q 7 173 -26 258 q 102 37 41 87 q 190 -10 138 8 q 300 -28 242 -28 q 398 -15 349 -28 q 499 27 448 -1 q 599 101 550 55 q 690 211 648 147 q 722 275 709 237 q 744 359 736 313 q 751 453 751 404 q 738 567 751 512 q 693 665 724 621 q 615 734 663 709 m 575 621 q 583 558 583 592 q 564 458 583 509 q 507 375 544 408 q 421 343 469 343 q 318 378 372 343 q 260 478 260 415 q 278 546 260 512 q 326 606 296 579 q 397 650 355 633 q 484 667 439 667 q 418 618 439 649 q 397 557 397 588 q 418 500 397 516 q 450 490 432 490 q 525 530 487 490 q 575 621 564 569 m 606 1022 l 244 1222 l 89 983 l 528 900 l 606 1022 "},"ó":{"ha":694,"x_min":-26,"x_max":751,"o":"m 615 734 q 513 777 562 764 q 411 790 464 790 q 235 746 321 790 q 68 616 149 703 q -26 353 -26 516 q 7 173 -26 258 q 102 37 41 87 q 190 -10 138 8 q 300 -28 242 -28 q 398 -15 349 -28 q 499 27 448 -1 q 599 101 550 55 q 690 211 648 147 q 722 275 709 237 q 744 359 736 313 q 751 453 751 404 q 738 567 751 512 q 693 665 724 621 q 615 734 663 709 m 575 621 q 583 558 583 592 q 564 458 583 509 q 507 375 544 408 q 421 343 469 343 q 318 378 372 343 q 260 478 260 415 q 278 546 260 512 q 326 606 296 579 q 397 650 355 633 q 484 667 439 667 q 418 618 439 649 q 397 557 397 588 q 418 500 397 516 q 450 490 432 490 q 525 530 487 490 q 575 621 564 569 m 89 1022 l 167 900 l 606 983 l 450 1222 l 89 1022 "},"ô":{"ha":694,"x_min":-28,"x_max":761,"o":"m 615 734 q 513 777 562 764 q 411 790 464 790 q 235 746 321 790 q 68 616 149 703 q -26 353 -26 516 q 7 173 -26 258 q 102 37 41 87 q 190 -10 138 8 q 300 -28 242 -28 q 398 -15 349 -28 q 499 27 448 -1 q 599 101 550 55 q 690 211 648 147 q 722 275 709 237 q 744 359 736 313 q 751 453 751 404 q 738 567 751 512 q 693 665 724 621 q 615 734 663 709 m 575 621 q 583 558 583 592 q 564 458 583 509 q 507 375 544 408 q 421 343 469 343 q 318 378 372 343 q 260 478 260 415 q 278 546 260 512 q 326 606 296 579 q 397 650 355 633 q 484 667 439 667 q 418 618 439 649 q 397 557 397 588 q 418 500 397 516 q 450 490 432 490 q 525 530 487 490 q 575 621 564 569 m 355 1289 l 0 1173 l -28 983 l 355 1100 l 761 966 l 745 1156 l 355 1289 "},"õ":{"ha":694,"x_min":-26,"x_max":751,"o":"m 615 734 q 513 777 562 764 q 411 790 464 790 q 235 746 321 790 q 68 616 149 703 q -26 353 -26 516 q 7 173 -26 258 q 102 37 41 87 q 190 -10 138 8 q 300 -28 242 -28 q 398 -15 349 -28 q 499 27 448 -1 q 599 101 550 55 q 690 211 648 147 q 722 275 709 237 q 744 359 736 313 q 751 453 751 404 q 738 567 751 512 q 693 665 724 621 q 615 734 663 709 m 575 621 q 583 558 583 592 q 564 458 583 509 q 507 375 544 408 q 421 343 469 343 q 318 378 372 343 q 260 478 260 415 q 278 546 260 512 q 326 606 296 579 q 397 650 355 633 q 484 667 439 667 q 418 618 439 649 q 397 557 397 588 q 418 500 397 516 q 450 490 432 490 q 525 530 487 490 q 575 621 564 569 m -11 1034 q 168 1069 69 1069 q 279 1054 229 1069 q 355 1006 330 1038 q 433 983 374 983 q 591 1006 500 983 q 728 1044 682 1029 l 694 1283 q 660 1227 694 1256 q 572 1179 625 1198 q 467 1160 519 1160 q 339 1211 383 1160 q 222 1260 296 1260 q 95 1233 156 1260 q 5 1189 34 1206 l -11 1034 "},"ö":{"ha":694,"x_min":-26,"x_max":751,"o":"m 615 734 q 513 777 562 764 q 411 790 464 790 q 235 746 321 790 q 68 616 149 703 q -26 353 -26 516 q 7 173 -26 258 q 102 37 41 87 q 190 -10 138 8 q 300 -28 242 -28 q 398 -15 349 -28 q 499 27 448 -1 q 599 101 550 55 q 690 211 648 147 q 722 275 709 237 q 744 359 736 313 q 751 453 751 404 q 738 567 751 512 q 693 665 724 621 q 615 734 663 709 m 575 621 q 583 558 583 592 q 564 458 583 509 q 507 375 544 408 q 421 343 469 343 q 318 378 372 343 q 260 478 260 415 q 278 546 260 512 q 326 606 296 579 q 397 650 355 633 q 484 667 439 667 q 418 618 439 649 q 397 557 397 588 q 418 500 397 516 q 450 490 432 490 q 525 530 487 490 q 575 621 564 569 m -22 1111 q 16 998 -22 1042 q 106 950 55 955 q 202 991 162 950 q 261 1105 241 1032 q 267 1141 267 1122 q 215 1240 267 1200 q 89 1283 164 1280 q -2 1219 19 1283 q -22 1111 -22 1154 m 428 1128 q 446 1046 428 1082 q 493 990 464 1010 q 555 966 522 970 q 652 1008 612 966 q 711 1122 692 1050 q 717 1158 717 1139 q 666 1257 717 1217 q 539 1300 614 1297 q 449 1236 469 1300 q 428 1128 428 1171 "},"(":{"ha":555,"x_min":5,"x_max":616,"o":"m 528 78 q 331 293 392 186 q 269 501 269 399 q 275 562 269 528 q 361 773 294 675 q 489 925 429 871 q 578 1000 549 980 l 616 1278 q 478 1212 572 1266 q 282 1066 384 1157 q 101 848 180 975 q 8 567 23 720 q 5 511 5 530 q 31 337 5 428 q 112 149 56 245 q 263 -47 169 52 q 494 -244 358 -146 l 528 78 "},")":{"ha":555,"x_min":-61,"x_max":550,"o":"m 28 78 l 61 -244 q 293 -47 198 -146 q 444 149 387 52 q 526 335 501 246 q 550 511 550 425 q 547 567 550 530 q 455 847 533 719 q 274 1066 376 975 q 78 1212 172 1156 q -61 1278 -16 1267 l -22 1000 q 66 925 6 980 q 194 773 127 871 q 281 562 262 676 q 286 501 286 524 q 225 292 286 398 q 28 78 164 185 "},"{":{"ha":555,"x_min":5,"x_max":616,"o":"m 528 78 q 331 293 392 186 q 269 501 269 399 q 275 562 269 528 q 361 773 294 675 q 489 925 429 871 q 578 1000 549 980 l 616 1278 q 478 1212 572 1266 q 282 1066 384 1157 q 101 848 180 975 q 8 567 23 720 q 5 511 5 530 q 31 337 5 428 q 112 149 56 245 q 263 -47 169 52 q 494 -244 358 -146 l 528 78 "},"}":{"ha":555,"x_min":-61,"x_max":550,"o":"m 28 78 l 61 -244 q 293 -47 198 -146 q 444 149 387 52 q 526 335 501 246 q 550 511 550 425 q 547 567 550 530 q 455 847 533 719 q 274 1066 376 975 q 78 1212 172 1156 q -61 1278 -16 1267 l -22 1000 q 66 925 6 980 q 194 773 127 871 q 281 562 262 676 q 286 501 286 524 q 225 292 286 398 q 28 78 164 185 "},"ù":{"ha":833,"x_min":0,"x_max":897,"o":"m 28 844 q 14 731 20 787 q 4 620 7 674 q 0 507 0 566 q 14 330 0 410 q 65 182 28 250 q 161 72 101 114 q 303 3 226 26 q 461 -20 380 -20 q 667 31 578 -20 q 783 144 723 63 q 861 300 844 226 q 897 519 897 446 q 893 592 897 563 q 867 761 889 621 l 583 778 q 585 685 585 745 q 581 575 585 625 q 568 483 576 525 q 545 394 560 441 q 511 300 530 348 q 456 231 483 231 q 378 328 420 231 q 361 381 368 350 q 352 450 355 412 q 349 541 349 488 q 361 806 349 645 l 28 844 m 711 1022 l 350 1222 l 195 983 l 633 900 l 711 1022 "},"ú":{"ha":833,"x_min":0,"x_max":897,"o":"m 28 844 q 14 731 20 787 q 4 620 7 674 q 0 507 0 566 q 14 330 0 410 q 65 182 28 250 q 161 72 101 114 q 303 3 226 26 q 461 -20 380 -20 q 667 31 578 -20 q 783 144 723 63 q 861 300 844 226 q 897 519 897 446 q 893 592 897 563 q 867 761 889 621 l 583 778 q 585 685 585 745 q 581 575 585 625 q 568 483 576 525 q 545 394 560 441 q 511 300 530 348 q 456 231 483 231 q 378 328 420 231 q 361 381 368 350 q 352 450 355 412 q 349 541 349 488 q 361 806 349 645 l 28 844 m 216 1034 l 294 911 l 733 994 l 578 1234 l 216 1034 "},"û":{"ha":833,"x_min":0,"x_max":897,"o":"m 28 844 q 14 731 20 787 q 4 620 7 674 q 0 507 0 566 q 14 330 0 410 q 65 182 28 250 q 161 72 101 114 q 303 3 226 26 q 461 -20 380 -20 q 667 31 578 -20 q 783 144 723 63 q 861 300 844 226 q 897 519 897 446 q 893 592 897 563 q 867 761 889 621 l 583 778 q 585 685 585 745 q 581 575 585 625 q 568 483 576 525 q 545 394 560 441 q 511 300 530 348 q 456 231 483 231 q 378 328 420 231 q 361 381 368 350 q 352 450 355 412 q 349 541 349 488 q 361 806 349 645 l 28 844 m 416 1283 l 61 1166 l 33 978 l 416 1095 l 822 961 l 806 1150 l 416 1283 "},"ü":{"ha":833,"x_min":0,"x_max":897,"o":"m 28 844 q 14 731 20 787 q 4 620 7 674 q 0 507 0 566 q 14 330 0 410 q 65 182 28 250 q 161 72 101 114 q 303 3 226 26 q 461 -20 380 -20 q 667 31 578 -20 q 783 144 723 63 q 861 300 844 226 q 897 519 897 446 q 893 592 897 563 q 867 761 889 621 l 583 778 q 585 685 585 745 q 581 575 585 625 q 568 483 576 525 q 545 394 560 441 q 511 300 530 348 q 456 231 483 231 q 378 328 420 231 q 361 381 368 350 q 352 450 355 412 q 349 541 349 488 q 361 806 349 645 l 28 844 m 50 1111 q 68 1029 50 1065 q 115 974 86 994 q 178 950 144 954 q 274 991 234 950 q 334 1105 314 1032 q 339 1141 339 1122 q 288 1240 339 1200 q 161 1283 237 1280 q 71 1219 92 1283 q 50 1111 50 1154 m 500 1128 q 518 1046 500 1082 q 566 990 537 1010 q 628 966 595 970 q 724 1008 684 966 q 783 1122 764 1050 q 789 1158 789 1139 q 738 1257 789 1217 q 611 1300 686 1297 q 520 1236 541 1300 q 500 1128 500 1171 "},"#":{"ha":764,"x_min":-22,"x_max":789,"o":"m 350 872 l 478 872 l 461 783 l 334 783 l 350 872 m 700 1267 l 550 1267 l 500 1083 l 372 1083 l 400 1261 l 216 1267 l 211 1083 l 33 1083 l 17 878 l 161 867 l 155 783 l -5 778 l -22 583 l 122 589 l 100 428 l 261 456 l 283 583 l 428 583 l 422 467 l 595 478 l 623 578 l 700 578 l 728 783 l 650 778 l 667 878 l 745 867 l 789 1078 l 677 1078 l 700 1267 "},"ý":{"ha":903,"x_min":-56,"x_max":956,"o":"m -56 661 l 339 -66 l 183 -489 l 450 -589 l 956 633 l 656 750 l 489 283 l 216 789 l -56 661 m 172 1034 l 250 911 l 689 994 l 533 1234 l 172 1034 "},"ÿ":{"ha":903,"x_min":-56,"x_max":956,"o":"m -56 661 l 339 -66 l 183 -489 l 450 -589 l 956 633 l 656 750 l 489 283 l 216 789 l -56 661 m 66 1111 q 85 1029 66 1065 q 133 973 104 993 q 195 950 162 954 q 291 991 251 950 q 350 1105 330 1032 q 355 1141 355 1122 q 304 1240 355 1201 q 178 1283 254 1280 q 87 1219 108 1283 q 66 1111 66 1154 m 517 1128 q 535 1046 517 1082 q 582 990 553 1010 q 644 966 610 970 q 741 1008 701 966 q 800 1122 781 1050 q 806 1158 806 1139 q 754 1257 806 1217 q 628 1300 703 1297 q 537 1236 558 1300 q 517 1128 517 1171 "},"æ":{"ha":1250,"x_min":-26,"x_max":1255,"o":"m 450 664 q 397 562 397 629 q 418 500 397 516 q 450 490 432 490 l 450 346 q 422 343 433 343 q 318 378 370 343 q 260 478 260 416 q 274 539 260 508 q 315 595 289 570 q 377 640 340 621 q 450 664 413 659 m 904 533 l 696 275 q 680 335 684 313 q 675 380 675 357 q 717 500 675 446 q 765 535 731 520 q 836 550 800 550 q 904 533 871 550 m 745 728 l 739 911 l 456 783 l 450 789 q 412 790 437 790 q 236 746 322 790 q 68 616 149 702 q -26 353 -26 516 q 7 173 -26 258 q 102 37 41 87 q 272 -17 168 -17 q 422 0 334 -17 l 517 50 q 616 -7 551 12 q 765 -26 681 -26 q 972 0 865 -26 q 1158 74 1080 26 q 1255 178 1235 121 l 1092 375 q 1025 285 1063 323 q 944 226 988 247 q 850 205 899 205 l 1222 650 q 1115 712 1163 688 q 1022 749 1066 736 q 930 761 977 761 q 745 728 853 761 "},"ø":{"ha":694,"x_min":-106,"x_max":800,"o":"m 575 621 q 583 558 583 592 q 564 458 583 509 q 507 375 544 408 q 421 343 469 343 q 318 378 372 343 q 260 478 260 415 q 278 546 260 512 q 326 606 296 579 q 397 650 355 633 q 484 667 439 667 q 418 618 439 649 q 397 557 397 588 q 418 500 397 516 q 450 490 432 490 q 525 530 487 490 q 575 621 564 569 m 7 172 l -106 39 l 50 -89 l 155 4 q 300 -28 223 -28 q 398 -15 349 -28 q 499 27 448 -1 q 599 101 550 55 q 690 211 648 147 q 732 310 717 250 q 747 432 747 369 q 711 606 747 526 l 800 705 q 769 738 800 709 q 702 799 737 768 q 650 844 666 830 l 582 751 q 411 790 498 790 q 235 746 321 790 q 68 616 148 701 q -4 496 20 566 q -28 353 -28 427 q 7 172 -28 256 "},"À":{"ha":764,"x_min":-306,"x_max":1100,"o":"m 428 783 l 494 522 l 334 545 l 428 783 m 433 1250 l -306 -222 l 45 -205 l 322 383 l 500 355 l 817 -383 l 1100 -355 l 433 1250 m 672 1417 l 311 1617 l 155 1378 l 595 1295 l 672 1417 "},"Á":{"ha":764,"x_min":-306,"x_max":1100,"o":"m 428 783 l 494 522 l 334 545 l 428 783 m 433 1250 l -306 -222 l 45 -205 l 322 383 l 500 355 l 817 -383 l 1100 -355 l 433 1250 m 161 1434 l 239 1311 l 677 1394 l 522 1633 l 161 1434 "},"Â":{"ha":764,"x_min":-306,"x_max":1100,"o":"m 428 783 l 494 522 l 334 545 l 428 783 m 433 1250 l -306 -222 l 45 -205 l 322 383 l 500 355 l 817 -383 l 1100 -355 l 433 1250 m 422 1611 l 66 1495 l 39 1305 l 422 1422 l 828 1289 l 811 1478 l 422 1611 "},"Ã":{"ha":764,"x_min":-306,"x_max":1100,"o":"m 428 783 l 494 522 l 334 545 l 428 783 m 433 1250 l -306 -222 l 45 -205 l 322 383 l 500 355 l 817 -383 l 1100 -355 l 433 1250 m 22 1422 q 201 1458 100 1458 q 389 1394 337 1458 q 467 1372 408 1372 q 625 1395 534 1372 q 761 1434 715 1418 l 728 1672 q 693 1616 728 1645 q 605 1568 659 1587 q 500 1549 552 1549 q 372 1600 416 1549 q 256 1649 330 1649 q 129 1622 191 1649 q 39 1578 67 1596 l 22 1422 "},"Ä":{"ha":764,"x_min":-306,"x_max":1100,"o":"m 428 783 l 494 522 l 334 545 l 428 783 m 433 1250 l -306 -222 l 45 -205 l 322 383 l 500 355 l 817 -383 l 1100 -355 l 433 1250 m 66 1478 q 85 1396 66 1432 q 133 1340 104 1360 q 195 1317 162 1320 q 291 1358 251 1317 q 350 1472 330 1399 q 355 1508 355 1489 q 304 1607 355 1568 q 178 1650 254 1647 q 87 1586 108 1650 q 66 1478 66 1521 m 517 1495 q 555 1381 517 1426 q 644 1333 594 1337 q 741 1374 701 1333 q 800 1489 781 1415 q 806 1525 806 1506 q 782 1596 806 1565 q 716 1646 758 1627 q 628 1667 675 1665 q 537 1603 558 1667 q 517 1495 517 1538 "},"Å":{"ha":764,"x_min":-306,"x_max":1100,"o":"m 428 783 l 494 522 l 334 545 l 428 783 m 433 1250 l -306 -222 l 45 -205 l 322 383 l 500 355 l 817 -383 l 1100 -355 l 433 1250 m 272 1506 q 291 1424 272 1460 q 338 1368 309 1388 q 400 1344 367 1348 q 496 1386 456 1344 q 555 1500 536 1428 q 561 1536 561 1516 q 510 1635 561 1596 q 383 1678 459 1674 q 293 1613 313 1678 q 272 1506 272 1549 "},"›":{"ha":694,"x_min":-58,"x_max":758,"o":"m 758 728 l -58 1050 l -31 817 l 319 711 l -3 600 l 31 361 l 758 728 "},"‹":{"ha":694,"x_min":5,"x_max":822,"o":"m 5 728 l 733 361 l 766 600 l 444 711 l 794 817 l 822 1050 l 5 728 "},"„":{"ha":694,"x_min":-61,"x_max":637,"o":"m 193 -29 l 221 383 l -61 424 l 49 -9 l 193 -29 m 610 -29 l 637 383 l 355 424 l 465 -9 l 610 -29 "},"‚":{"ha":278,"x_min":-14,"x_max":268,"o":"m 240 -18 l 268 395 l -14 435 l 96 1 l 240 -18 "},"È":{"ha":764,"x_min":-78,"x_max":1067,"o":"m 355 89 l 334 422 l 800 511 l 783 755 l 322 677 l 311 889 l 778 966 l 761 1261 l -61 1139 l -78 817 l 17 833 l 72 -189 l 1061 -239 l 1067 56 l 355 89 m 672 1417 l 311 1617 l 155 1378 l 595 1295 l 672 1417 "},"É":{"ha":764,"x_min":-78,"x_max":1067,"o":"m 355 89 l 334 422 l 800 511 l 783 755 l 322 677 l 311 889 l 778 966 l 761 1261 l -61 1139 l -78 817 l 17 833 l 72 -189 l 1061 -239 l 1067 56 l 355 89 m 161 1434 l 239 1311 l 677 1394 l 522 1633 l 161 1434 "},"Ê":{"ha":764,"x_min":-78,"x_max":1067,"o":"m 355 89 l 334 422 l 800 511 l 783 755 l 322 677 l 311 889 l 778 966 l 761 1261 l -61 1139 l -78 817 l 17 833 l 72 -189 l 1061 -239 l 1067 56 l 355 89 m 422 1611 l 66 1495 l 39 1305 l 422 1422 l 828 1289 l 811 1478 l 422 1611 "},"Ë":{"ha":764,"x_min":-78,"x_max":1067,"o":"m 355 89 l 334 422 l 800 511 l 783 755 l 322 677 l 311 889 l 778 966 l 761 1261 l -61 1139 l -78 817 l 17 833 l 72 -189 l 1061 -239 l 1067 56 l 355 89 m 66 1478 q 85 1396 66 1432 q 133 1340 104 1360 q 195 1317 162 1320 q 291 1358 251 1317 q 350 1472 330 1399 q 355 1508 355 1489 q 304 1607 355 1568 q 178 1650 254 1647 q 87 1586 108 1650 q 66 1478 66 1521 m 517 1495 q 555 1381 517 1426 q 644 1333 594 1337 q 741 1374 701 1333 q 800 1489 781 1415 q 806 1525 806 1506 q 782 1596 806 1565 q 716 1646 758 1627 q 628 1667 675 1665 q 537 1603 558 1667 q 517 1495 517 1538 "},"…":{"ha":903,"x_min":-5,"x_max":951,"o":"m 111 283 q 23 228 51 278 q -5 119 -5 178 q 42 24 2 59 q 150 -11 83 -11 q 203 -5 166 -11 q 241 23 220 -3 q 276 82 262 48 q 290 149 290 115 q 282 189 290 170 q 252 229 274 206 q 194 268 229 252 q 111 283 159 283 m 444 289 q 356 233 384 283 q 328 125 328 183 q 376 29 336 64 q 484 -5 417 -5 q 536 0 500 -5 q 575 28 554 3 q 610 87 595 54 q 624 154 624 121 q 615 195 624 174 q 585 235 606 214 q 527 273 563 257 q 444 289 492 289 m 772 294 q 684 239 712 289 q 656 131 656 189 q 680 61 661 91 q 733 16 700 31 q 811 0 766 0 q 864 5 827 0 q 902 34 882 8 q 937 93 923 59 q 951 160 951 127 q 943 200 951 181 q 913 240 935 217 q 856 278 890 262 q 772 294 821 294 "},"¢":{"ha":833,"x_min":-57,"x_max":936,"o":"m 306 28 l 300 -83 l 550 -83 l 555 33 q 691 85 627 50 q 812 182 756 120 q 904 332 867 243 q 822 399 878 353 q 712 490 766 444 q 656 541 659 535 q 553 424 612 453 q 439 395 493 395 q 338 447 366 398 q 306 550 309 496 q 347 677 306 621 q 428 733 389 733 q 632 657 602 733 l 936 856 q 865 974 918 922 q 734 1060 812 1025 q 561 1111 656 1094 l 567 1267 q 322 1272 567 1272 l 317 1131 q 96 1027 179 1106 q -22 840 12 948 q -57 610 -57 732 q -56 550 -57 570 q -18 313 -45 408 q 55 158 10 218 q 162 67 100 98 q 306 28 224 37 "},"Ò":{"ha":1042,"x_min":-46,"x_max":1105,"o":"m 945 1017 q 628 1135 789 1135 q 437 1094 530 1135 q 256 983 343 1054 q 89 822 168 913 q -46 456 -46 668 q 6 208 -46 323 q 139 39 59 93 q 404 -40 258 -40 q 533 -23 467 -40 q 669 32 599 -6 q 809 130 740 69 q 950 278 879 190 q 1029 400 994 332 q 1085 544 1065 469 q 1105 689 1105 618 q 945 1017 1105 894 m 811 842 q 821 762 821 804 q 774 611 821 672 q 659 550 727 550 q 547 595 603 550 q 501 710 501 631 q 523 807 501 760 q 590 884 545 854 q 701 914 636 914 q 622 844 647 884 q 597 762 597 804 q 605 720 597 742 q 623 688 612 699 q 671 667 643 667 q 756 716 715 667 q 811 842 798 766 m 672 1417 l 311 1617 l 155 1378 l 595 1295 l 672 1417 "},"Ó":{"ha":1042,"x_min":-46,"x_max":1105,"o":"m 945 1017 q 628 1135 789 1135 q 437 1094 530 1135 q 256 983 343 1054 q 89 822 168 913 q -46 456 -46 668 q 6 208 -46 323 q 139 39 59 93 q 404 -40 258 -40 q 533 -23 467 -40 q 669 32 599 -6 q 809 130 740 69 q 950 278 879 190 q 1029 400 994 332 q 1085 544 1065 469 q 1105 689 1105 618 q 945 1017 1105 894 m 811 842 q 821 762 821 804 q 774 611 821 672 q 659 550 727 550 q 547 595 603 550 q 501 710 501 631 q 523 807 501 760 q 590 884 545 854 q 701 914 636 914 q 622 844 647 884 q 597 762 597 804 q 605 720 597 742 q 623 688 612 699 q 671 667 643 667 q 756 716 715 667 q 811 842 798 766 m 395 1444 l 472 1322 l 911 1406 l 755 1645 l 395 1444 "},"Ô":{"ha":1042,"x_min":-46,"x_max":1105,"o":"m 945 1017 q 628 1135 789 1135 q 437 1094 530 1135 q 256 983 343 1054 q 89 822 168 913 q -46 456 -46 668 q 6 208 -46 323 q 139 39 59 93 q 404 -40 258 -40 q 533 -23 467 -40 q 669 32 599 -6 q 809 130 740 69 q 950 278 879 190 q 1029 400 994 332 q 1085 544 1065 469 q 1105 689 1105 618 q 945 1017 1105 894 m 811 842 q 821 762 821 804 q 774 611 821 672 q 659 550 727 550 q 547 595 603 550 q 501 710 501 631 q 523 807 501 760 q 590 884 545 854 q 701 914 636 914 q 622 844 647 884 q 597 762 597 804 q 605 720 597 742 q 623 688 612 699 q 671 667 643 667 q 756 716 715 667 q 811 842 798 766 m 545 1617 l 189 1500 l 161 1311 l 545 1428 l 950 1295 l 933 1483 l 545 1617 "},"Õ":{"ha":1042,"x_min":-46,"x_max":1105,"o":"m 945 1017 q 628 1135 789 1135 q 437 1094 530 1135 q 256 983 343 1054 q 89 822 168 913 q -46 456 -46 668 q 6 208 -46 323 q 139 39 59 93 q 404 -40 258 -40 q 533 -23 467 -40 q 669 32 599 -6 q 809 130 740 69 q 950 278 879 190 q 1029 400 994 332 q 1085 544 1065 469 q 1105 689 1105 618 q 945 1017 1105 894 m 811 842 q 821 762 821 804 q 774 611 821 672 q 659 550 727 550 q 547 595 603 550 q 501 710 501 631 q 523 807 501 760 q 590 884 545 854 q 701 914 636 914 q 622 844 647 884 q 597 762 597 804 q 605 720 597 742 q 623 688 612 699 q 671 667 643 667 q 756 716 715 667 q 811 842 798 766 m 205 1428 q 288 1454 241 1444 q 385 1464 336 1464 q 572 1400 519 1464 q 650 1378 591 1378 q 808 1401 717 1378 q 945 1439 899 1424 l 911 1678 q 876 1622 911 1651 q 788 1573 842 1592 q 684 1554 735 1554 q 555 1605 599 1554 q 439 1654 513 1654 q 313 1628 374 1654 q 222 1584 251 1601 l 205 1428 "},"Ö":{"ha":1042,"x_min":-46,"x_max":1105,"o":"m 945 1017 q 628 1135 789 1135 q 437 1094 530 1135 q 256 983 343 1054 q 89 822 168 913 q -46 456 -46 668 q 6 208 -46 323 q 139 39 59 93 q 404 -40 258 -40 q 533 -23 467 -40 q 669 32 599 -6 q 809 130 740 69 q 950 278 879 190 q 1029 400 994 332 q 1085 544 1065 469 q 1105 689 1105 618 q 945 1017 1105 894 m 811 842 q 821 762 821 804 q 774 611 821 672 q 659 550 727 550 q 547 595 603 550 q 501 710 501 631 q 523 807 501 760 q 590 884 545 854 q 701 914 636 914 q 622 844 647 884 q 597 762 597 804 q 605 720 597 742 q 623 688 612 699 q 671 667 643 667 q 756 716 715 667 q 811 842 798 766 m 178 1478 q 216 1365 178 1409 q 306 1317 255 1322 q 402 1358 362 1317 q 461 1472 441 1399 q 467 1508 467 1489 q 415 1607 467 1567 q 289 1650 364 1647 q 198 1586 219 1650 q 178 1478 178 1521 m 628 1495 q 667 1381 628 1426 q 755 1333 705 1337 q 851 1374 812 1333 q 911 1489 890 1415 q 917 1525 917 1505 q 893 1596 917 1565 q 828 1646 869 1627 q 739 1667 787 1665 q 649 1603 669 1667 q 628 1495 628 1538 "},"¨":{"ha":694,"x_min":-22,"x_max":717,"o":"m -22 1111 q 16 998 -22 1042 q 106 950 55 955 q 202 991 162 950 q 261 1105 241 1032 q 267 1141 267 1122 q 215 1240 267 1200 q 89 1283 164 1280 q -2 1219 19 1283 q -22 1111 -22 1154 m 428 1128 q 446 1046 428 1082 q 493 990 464 1010 q 555 966 522 970 q 652 1008 612 966 q 711 1122 692 1050 q 717 1158 717 1139 q 666 1257 717 1217 q 539 1300 614 1297 q 449 1236 469 1300 q 428 1128 428 1171 "},"»":{"ha":1320,"x_min":-58,"x_max":1383,"o":"m 758 728 l -58 1050 l -31 817 l 319 711 l -3 600 l 31 361 l 758 728 m 1383 728 l 567 1050 l 595 817 l 945 711 l 623 600 l 656 361 l 1383 728 "},"«":{"ha":1320,"x_min":5,"x_max":1447,"o":"m 5 728 l 733 361 l 766 600 l 444 711 l 794 817 l 822 1050 l 5 728 m 631 728 l 1358 361 l 1392 600 l 1069 711 l 1419 817 l 1447 1050 l 631 728 "},"Ù":{"ha":903,"x_min":-122,"x_max":958,"o":"m 345 1267 l -122 1305 l -117 1133 l 0 1105 q -16 825 -16 987 q -7 609 -16 719 q 19 395 1 499 q 67 217 38 291 q 139 106 97 142 q 289 24 203 52 q 464 -4 376 -4 q 661 41 581 -4 q 751 113 699 64 q 846 219 802 161 q 905 322 890 277 q 946 522 934 408 q 958 766 958 635 q 950 1004 958 884 q 928 1211 941 1123 l 567 1239 q 574 1124 568 1210 q 585 961 580 1038 q 593 820 590 884 q 596 686 596 755 q 567 439 596 513 q 528 371 551 397 q 481 345 505 345 q 406 422 440 345 q 375 575 390 457 q 350 845 360 693 q 340 1121 340 997 q 345 1267 340 1204 m 672 1417 l 311 1617 l 155 1378 l 595 1295 l 672 1417 "},"Ú":{"ha":903,"x_min":-122,"x_max":958,"o":"m 345 1267 l -122 1305 l -117 1133 l 0 1105 q -16 825 -16 987 q -7 609 -16 719 q 19 395 1 499 q 67 217 38 291 q 139 106 97 142 q 289 24 203 52 q 464 -4 376 -4 q 661 41 581 -4 q 751 113 699 64 q 846 219 802 161 q 905 322 890 277 q 946 522 934 408 q 958 766 958 635 q 950 1004 958 884 q 928 1211 941 1123 l 567 1239 q 574 1124 568 1210 q 585 961 580 1038 q 593 820 590 884 q 596 686 596 755 q 567 439 596 513 q 528 371 551 397 q 481 345 505 345 q 406 422 440 345 q 375 575 390 457 q 350 845 360 693 q 340 1121 340 997 q 345 1267 340 1204 m 161 1434 l 239 1311 l 677 1394 l 522 1633 l 161 1434 "},"Û":{"ha":903,"x_min":-122,"x_max":958,"o":"m 345 1267 l -122 1305 l -117 1133 l 0 1105 q -16 825 -16 987 q -7 609 -16 719 q 19 395 1 499 q 67 217 38 291 q 139 106 97 142 q 289 24 203 52 q 464 -4 376 -4 q 661 41 581 -4 q 751 113 699 64 q 846 219 802 161 q 905 322 890 277 q 946 522 934 408 q 958 766 958 635 q 950 1004 958 884 q 928 1211 941 1123 l 567 1239 q 574 1124 568 1210 q 585 961 580 1038 q 593 820 590 884 q 596 686 596 755 q 567 439 596 513 q 528 371 551 397 q 481 345 505 345 q 406 422 440 345 q 375 575 390 457 q 350 845 360 693 q 340 1121 340 997 q 345 1267 340 1204 m 422 1611 l 66 1495 l 39 1305 l 422 1422 l 828 1289 l 811 1478 l 422 1611 "},"Ü":{"ha":903,"x_min":-122,"x_max":958,"o":"m 345 1267 l -122 1305 l -117 1133 l 0 1105 q -16 825 -16 987 q -7 609 -16 719 q 19 395 1 499 q 67 217 38 291 q 139 106 97 142 q 289 24 203 52 q 464 -4 376 -4 q 661 41 581 -4 q 751 113 699 64 q 846 219 802 161 q 905 322 890 277 q 946 522 934 408 q 958 766 958 635 q 950 1004 958 884 q 928 1211 941 1123 l 567 1239 q 574 1124 568 1210 q 585 961 580 1038 q 593 820 590 884 q 596 686 596 755 q 567 439 596 513 q 528 371 551 397 q 481 345 505 345 q 406 422 440 345 q 375 575 390 457 q 350 845 360 693 q 340 1121 340 997 q 345 1267 340 1204 m 66 1478 q 85 1396 66 1432 q 133 1340 104 1360 q 195 1317 162 1320 q 291 1358 251 1317 q 350 1472 330 1399 q 355 1508 355 1489 q 304 1607 355 1568 q 178 1650 254 1647 q 87 1586 108 1650 q 66 1478 66 1521 m 517 1495 q 555 1381 517 1426 q 644 1333 594 1337 q 741 1374 701 1333 q 800 1489 781 1415 q 806 1525 806 1506 q 782 1596 806 1565 q 716 1646 758 1627 q 628 1667 675 1665 q 537 1603 558 1667 q 517 1495 517 1538 "},"Ø":{"ha":1042,"x_min":-106,"x_max":1133,"o":"m 811 842 q 821 762 821 804 q 774 611 821 672 q 659 550 727 550 q 547 595 603 550 q 501 710 501 631 q 523 807 501 760 q 590 884 545 854 q 701 914 636 914 q 622 844 647 884 q 597 762 597 804 q 605 720 597 742 q 623 688 612 699 q 671 667 643 667 q 756 716 715 667 q 811 842 798 766 m -106 56 l 78 -100 l 200 5 q 404 -40 296 -40 q 675 35 536 -40 q 950 278 814 109 q 1011 369 982 318 q 1062 472 1041 419 q 1094 579 1082 525 q 1105 689 1105 633 q 1028 932 1105 829 l 1133 1061 l 928 1211 q 879 1160 916 1199 q 817 1093 843 1122 q 628 1135 722 1135 q 437 1094 530 1135 q 256 983 343 1054 q 89 822 168 913 q -13 649 19 743 q -45 456 -45 556 q 18 183 -45 308 l -106 56 "},"Ì":{"ha":764,"x_min":-78,"x_max":789,"o":"m 444 311 l 494 911 l 778 966 l 761 1261 l -61 1139 l -78 817 l 216 867 l 189 278 l 0 272 l -33 11 l 783 11 l 789 306 l 444 311 m 672 1417 l 311 1617 l 155 1378 l 595 1295 l 672 1417 "},"Í":{"ha":764,"x_min":-78,"x_max":789,"o":"m 444 311 l 494 911 l 778 966 l 761 1261 l -61 1139 l -78 817 l 216 867 l 189 278 l 0 272 l -33 11 l 783 11 l 789 306 l 444 311 m 161 1434 l 239 1311 l 677 1394 l 522 1633 l 161 1434 "},"Î":{"ha":764,"x_min":-78,"x_max":828,"o":"m 444 311 l 494 911 l 778 966 l 761 1261 l -61 1139 l -78 817 l 216 867 l 189 278 l 0 272 l -33 11 l 783 11 l 789 306 l 444 311 m 422 1611 l 66 1495 l 39 1305 l 422 1422 l 828 1289 l 811 1478 l 422 1611 "},"Ï":{"ha":764,"x_min":-78,"x_max":806,"o":"m 444 311 l 494 911 l 778 966 l 761 1261 l -61 1139 l -78 817 l 216 867 l 189 278 l 0 272 l -33 11 l 783 11 l 789 306 l 444 311 m 66 1478 q 85 1396 66 1432 q 133 1340 104 1360 q 195 1317 162 1320 q 291 1358 251 1317 q 350 1472 330 1399 q 355 1508 355 1489 q 304 1607 355 1568 q 178 1650 254 1647 q 87 1586 108 1650 q 66 1478 66 1521 m 517 1495 q 555 1381 517 1426 q 644 1333 594 1337 q 741 1374 701 1333 q 800 1489 781 1415 q 806 1525 806 1506 q 782 1596 806 1565 q 716 1646 758 1627 q 628 1667 675 1665 q 537 1603 558 1667 q 517 1495 517 1538 "},"Æ":{"ha":1250,"x_min":-306,"x_max":1544,"o":"m 428 783 l 494 522 l 334 545 l 428 783 m 528 350 l 589 -83 l 1539 -161 l 1544 134 l 833 167 l 789 489 l 1278 589 l 1261 833 l 750 739 l 728 956 l 1255 1044 l 1239 1339 l 433 1250 l -306 -222 l 45 -205 l 322 383 l 528 350 "},"Ñ":{"ha":764,"x_min":-122,"x_max":861,"o":"m 289 1278 l -122 1305 l -117 1133 l 0 1105 l 39 -195 l 361 -189 l 355 406 l 611 -317 l 861 -300 l 850 1222 l 428 1239 l 467 828 l 289 1278 m 22 1422 q 201 1458 100 1458 q 389 1394 337 1458 q 467 1372 408 1372 q 625 1395 534 1372 q 761 1434 715 1418 l 728 1672 q 693 1616 728 1645 q 605 1568 659 1587 q 500 1549 552 1549 q 372 1600 416 1549 q 256 1649 330 1649 q 129 1622 191 1649 q 39 1578 67 1596 l 22 1422 "},"ñ":{"ha":833,"x_min":-11,"x_max":897,"o":"m 294 783 l 256 828 l -11 794 l 1 399 q -1 326 -1 351 q 2 217 -1 268 q 13 108 6 167 q 28 -11 20 49 l 361 28 q 349 293 349 189 q 352 382 349 345 q 361 451 355 420 q 378 505 368 481 q 456 603 420 603 q 511 533 483 603 q 585 81 585 347 q 583 -17 585 17 l 867 0 q 890 161 882 98 q 897 281 897 224 q 861 533 897 389 q 774 688 844 604 q 644 806 705 771 q 528 835 594 835 q 424 822 478 835 q 294 783 370 808 m -11 1034 q 168 1069 69 1069 q 279 1054 229 1069 q 355 1006 330 1038 q 433 983 374 983 q 591 1006 500 983 q 728 1044 682 1029 l 694 1283 q 660 1227 694 1256 q 572 1179 625 1198 q 467 1160 519 1160 q 339 1211 383 1160 q 222 1260 296 1260 q 95 1233 156 1260 q 5 1189 34 1206 l -11 1034 "},"ç":{"ha":833,"x_min":-57,"x_max":936,"o":"m 572 37 q 904 332 808 100 q 822 399 878 353 q 712 490 766 444 q 656 541 659 535 q 553 424 612 453 q 439 395 493 395 q 338 447 366 398 q 306 550 309 496 q 347 677 306 621 q 428 733 389 733 q 632 657 602 733 l 936 856 q 869 970 920 917 q 747 1060 818 1023 q 590 1118 675 1097 q 416 1139 505 1139 q 190 1090 283 1137 q 43 969 96 1043 q -34 802 -10 895 q -57 610 -57 710 q -56 550 -57 570 q 8 257 -44 370 q 143 89 60 144 q 334 21 225 34 q 387 -72 387 -32 q 309 -155 387 -132 q 178 -183 230 -179 l 416 -355 q 511 -323 448 -347 q 636 -251 574 -298 q 699 -139 699 -203 q 572 37 699 -54 "},"Ç":{"ha":833,"x_min":-57,"x_max":936,"o":"m 572 37 q 904 332 808 100 q 822 399 878 353 q 712 490 766 444 q 656 541 659 535 q 553 424 612 453 q 439 395 493 395 q 338 447 366 398 q 306 550 309 496 q 347 677 306 621 q 428 733 389 733 q 632 657 602 733 l 936 856 q 869 970 920 917 q 747 1060 818 1023 q 590 1118 675 1097 q 416 1139 505 1139 q 190 1090 283 1137 q 43 969 96 1043 q -34 802 -10 895 q -57 610 -57 710 q -56 550 -57 570 q 8 257 -44 370 q 143 89 60 144 q 334 21 225 34 q 387 -72 387 -32 q 309 -155 387 -132 q 178 -183 230 -179 l 416 -355 q 511 -323 448 -347 q 636 -251 574 -298 q 699 -139 699 -203 q 572 37 699 -54 "},"¸":{"ha":833,"x_min":178,"x_max":699,"o":"m 572 37 l 489 117 q 426 110 489 115 q 320 103 363 106 q 250 100 277 101 l 334 21 q 387 -72 387 -32 q 309 -155 387 -132 q 178 -183 230 -179 l 416 -355 q 511 -323 448 -347 q 636 -251 574 -298 q 699 -139 699 -203 q 572 37 699 -54 "},"Ÿ":{"ha":972,"x_min":-106,"x_max":1072,"o":"m 39 1050 l 428 339 l 228 -233 l 555 -205 l 1072 1139 l 745 1156 l 583 689 l 306 1206 l -106 1234 l -100 1061 l 39 1050 m 66 1478 q 85 1396 66 1432 q 133 1340 104 1360 q 195 1317 162 1320 q 291 1358 251 1317 q 350 1472 330 1399 q 355 1508 355 1489 q 304 1607 355 1568 q 178 1650 254 1647 q 87 1586 108 1650 q 66 1478 66 1521 m 517 1495 q 555 1381 517 1426 q 644 1333 594 1337 q 741 1374 701 1333 q 800 1489 781 1415 q 806 1525 806 1506 q 782 1596 806 1565 q 716 1646 758 1627 q 628 1667 675 1665 q 537 1603 558 1667 q 517 1495 517 1538 "},"Ý":{"ha":972,"x_min":-106,"x_max":1072,"o":"m 39 1050 l 428 339 l 228 -233 l 555 -205 l 1072 1139 l 745 1156 l 583 689 l 306 1206 l -106 1234 l -100 1061 l 39 1050 m 161 1434 l 239 1311 l 677 1394 l 522 1633 l 161 1434 "},"‰":{"ha":1458,"x_min":-122,"x_max":1553,"o":"m 1078 1189 l 705 1173 l -122 -233 l 228 -222 l 1078 1189 m 121 1150 q -19 1063 24 1141 q -62 895 -62 985 q -24 786 -55 832 q 60 715 7 740 q 182 690 113 690 q 264 699 220 690 q 324 744 292 705 q 378 837 357 783 q 400 939 400 891 q 387 1003 400 978 q 358 1048 378 1023 q 307 1097 337 1073 q 237 1136 277 1120 q 149 1152 196 1152 q 121 1150 131 1152 m 787 367 q 648 279 691 357 q 604 111 604 201 q 643 3 612 49 q 726 -68 673 -43 q 848 -93 779 -93 q 930 -85 887 -93 q 990 -41 957 -80 q 1045 53 1023 -2 q 1067 155 1067 108 q 1054 220 1067 195 q 1024 264 1045 239 q 974 313 1004 290 q 903 353 944 337 q 815 368 863 368 q 787 367 798 368 m 1274 367 q 1134 279 1177 357 q 1090 111 1090 201 q 1129 3 1098 49 q 1213 -68 1160 -43 q 1335 -93 1265 -93 q 1417 -85 1373 -93 q 1476 -41 1443 -80 q 1531 53 1509 -2 q 1553 155 1553 108 q 1540 220 1553 195 q 1493 283 1526 249 q 1410 343 1460 317 q 1301 368 1359 368 q 1274 367 1283 368 "},"·":{"ha":278,"x_min":-5,"x_max":290,"o":"m 111 833 q 23 778 51 828 q -5 669 -5 728 q 42 574 2 609 q 150 539 83 539 q 203 545 166 539 q 241 573 220 547 q 276 632 262 598 q 290 699 290 665 q 282 739 290 720 q 252 779 274 756 q 194 818 229 802 q 111 833 159 833 "},"ß":{"ha":833,"x_min":5,"x_max":886,"o":"m 306 922 q 390 951 347 951 q 484 933 417 951 q 494 918 494 930 q 438 823 494 886 q 345 722 382 759 l 306 922 m 17 850 l 239 -39 l 533 -94 l 383 517 q 420 536 394 521 q 478 583 446 552 q 542 534 501 578 q 583 461 583 490 q 489 338 583 394 l 599 64 q 801 192 715 112 q 886 387 886 271 q 817 595 886 483 q 750 681 784 647 q 687 733 715 715 q 644 755 659 750 q 623 761 629 760 q 758 1017 758 926 q 750 1055 758 1037 q 632 1181 710 1138 q 447 1225 553 1225 q 228 1183 340 1225 q 154 1157 203 1179 q 55 1080 104 1136 q 5 933 5 1024 q 17 850 5 890 "},"¥":{"ha":972,"x_min":-106,"x_max":1072,"o":"m 39 1050 l 272 623 l 134 628 l 139 439 l 406 416 l 428 339 l 412 296 l 139 289 l 117 106 l 347 110 l 228 -233 l 555 -205 l 682 103 l 922 111 l 966 289 l 757 288 l 817 433 l 989 428 l 1017 623 l 872 619 l 1072 1139 l 745 1156 l 583 689 l 306 1206 l -106 1234 l -100 1061 l 39 1050 "},"•":{"ha":278,"x_min":-5,"x_max":290,"o":"m 111 833 q 23 778 51 828 q -5 669 -5 728 q 42 574 2 609 q 150 539 83 539 q 203 545 166 539 q 241 573 220 547 q 276 632 262 598 q 290 699 290 665 q 282 739 290 720 q 252 779 274 756 q 194 818 229 802 q 111 833 159 833 "},"¿":{"ha":764,"x_min":-90,"x_max":833,"o":"m 564 593 l 493 798 q 334 707 432 779 q 138 536 237 635 q -25 340 39 437 q -90 180 -90 243 q -83 144 -90 158 q 38 17 -42 57 q 231 -22 119 -22 q 375 -9 295 -22 q 528 23 456 4 q 691 71 600 42 q 833 117 781 100 q 771 283 821 144 q 717 422 721 422 q 652 386 711 417 q 530 327 593 354 q 422 294 467 300 q 334 278 409 293 q 221 262 258 262 q 183 267 200 262 q 174 282 174 269 q 211 359 174 308 q 304 463 248 410 q 431 554 361 516 q 564 593 500 592 m 389 922 q 456 952 430 926 q 494 1014 483 978 q 505 1086 505 1049 q 457 1182 498 1147 q 350 1217 417 1217 q 297 1211 334 1217 q 259 1183 279 1208 q 224 1124 238 1158 q 210 1057 210 1090 q 218 1017 210 1035 q 278 954 233 985 q 389 922 323 922 "},"¡":{"ha":278,"x_min":-39,"x_max":367,"o":"m 178 994 q 267 1050 239 1000 q 294 1158 294 1101 q 247 1255 287 1220 q 139 1289 206 1289 q 86 1283 127 1289 q 48 1255 68 1280 q 13 1196 27 1230 q -1 1129 -1 1162 q 7 1089 -1 1107 q 67 1025 23 1056 q 178 994 112 994 m 278 806 l 45 783 l -39 -66 l 367 56 l 278 806 "},"š":{"ha":764,"x_min":-106,"x_max":867,"o":"m 761 517 q 781 552 764 517 q 829 664 797 587 q 867 750 862 740 q 514 857 644 823 q 262 892 385 892 q 81 854 157 892 q -33 733 5 817 q -68 590 -68 659 q -8 439 -68 500 q 137 347 52 378 q 306 306 222 315 q 440 279 380 296 q 500 244 500 262 q 458 229 497 238 q 375 220 418 220 q 239 244 304 220 q 152 272 209 256 q 66 298 96 287 q 17 328 37 309 q -8 273 17 323 q -61 172 -34 224 q -106 83 -88 120 q 42 35 -37 61 q 192 -10 121 9 q 338 -42 262 -29 q 476 -56 415 -56 q 778 111 699 -56 q 796 197 796 151 q 760 325 796 262 q 644 433 724 387 q 433 494 564 480 q 272 530 338 506 q 205 587 205 554 q 239 633 205 608 q 272 640 250 640 q 387 624 313 640 q 523 590 461 608 q 662 548 584 572 q 761 517 741 524 m 367 1194 l 33 1328 l -11 1122 l 378 983 l 755 1128 l 733 1322 l 367 1194 "},"Š":{"ha":764,"x_min":-134,"x_max":889,"o":"m -28 1050 q -53 942 -53 997 q 27 727 -53 835 q 213 538 106 620 q 406 411 319 456 q 547 281 547 336 q 517 233 547 256 q 469 221 500 221 q 424 226 443 221 q 352 245 404 231 q 278 261 300 259 q 111 320 219 268 q -17 389 2 373 q -33 354 -20 389 q -62 274 -46 319 q -101 166 -78 229 q -134 83 -123 104 q 11 37 -71 63 q 168 -9 94 11 q 322 -42 242 -29 q 465 -56 401 -56 q 656 -16 576 -56 q 778 111 736 24 q 800 224 800 162 q 783 335 800 276 q 728 450 766 393 q 624 565 691 507 q 467 667 557 622 q 377 715 422 688 q 294 771 332 743 q 234 828 257 800 q 211 882 211 857 q 239 928 211 908 q 286 940 255 940 q 390 921 320 940 q 478 900 459 902 q 587 867 520 895 q 710 808 654 838 q 772 772 767 778 q 825 908 777 772 q 889 1078 874 1044 q 556 1176 696 1140 q 289 1211 416 1211 q -28 1050 48 1211 m 378 1439 l 45 1572 l 0 1367 l 389 1227 l 766 1372 l 745 1567 l 378 1439 "},"—":{"ha":625,"x_min":-5,"x_max":661,"o":"m 11 722 l -5 539 l 639 561 l 661 783 l 11 722 "},"–":{"ha":903,"x_min":-5,"x_max":911,"o":"m 11 722 l -5 539 l 889 567 l 911 789 l 11 722 "},"ƒ":{"ha":764,"x_min":-385,"x_max":875,"o":"m 85 -14 q 97 -195 97 -111 q 89 -311 97 -266 q 55 -370 82 -350 q -8 -390 28 -390 q -78 -366 -48 -390 q -109 -301 -109 -342 q -106 -278 -109 -294 l -328 -134 q -363 -222 -342 -160 q -385 -358 -385 -284 q -338 -519 -385 -447 q -178 -628 -291 -591 q 3 -659 -82 -659 q 203 -618 113 -659 q 339 -522 294 -578 q 391 -405 371 -483 q 418 -254 410 -328 q 425 -139 425 -181 q 419 -15 422 -100 q 414 173 416 70 q 412 342 412 276 q 414 505 412 454 l 610 511 l 610 772 l 431 772 q 438 843 433 799 q 446 912 442 887 q 453 945 449 937 q 528 1015 483 1015 q 589 982 559 1015 q 636 905 619 949 l 875 1061 q 828 1167 858 1134 q 736 1227 798 1200 q 576 1257 675 1257 q 380 1227 475 1257 q 140 1076 203 1176 q 77 863 77 975 q 81 789 77 840 l -129 811 l -90 500 l 69 500 q 85 -14 71 94 "},"£":{"ha":764,"x_min":-129,"x_max":1067,"o":"m 400 72 q 397 142 397 119 q 399 202 397 176 q 404 288 400 228 q 411 401 408 348 q 414 505 413 454 l 610 511 l 610 772 l 431 772 q 438 843 433 799 q 446 912 442 887 q 453 945 449 937 q 528 1015 483 1015 q 589 982 559 1015 q 636 905 619 949 l 875 1061 q 828 1167 858 1134 q 736 1227 798 1200 q 576 1257 675 1257 q 380 1227 475 1257 q 140 1076 203 1176 q 77 863 77 975 q 81 789 77 840 l -129 811 l -90 500 l 69 500 l 69 435 q 69 199 69 288 q 68 7 68 111 q 72 -189 68 -158 l 1061 -239 l 1067 56 l 400 72 "},"÷":{"ha":625,"x_min":-5,"x_max":661,"o":"m 11 722 l -5 539 l 639 561 l 661 783 l 11 722 m 294 489 q 206 433 234 484 q 178 325 178 383 q 225 230 185 264 q 334 195 266 195 q 386 200 351 195 q 425 228 404 203 q 459 288 446 254 q 473 354 473 322 q 465 395 473 376 q 435 435 456 414 q 377 473 413 457 q 294 489 342 489 m 278 1100 q 189 1044 216 1095 q 161 936 161 994 q 210 840 169 875 q 317 806 250 806 q 370 811 333 806 q 408 839 387 814 q 443 898 429 865 q 457 965 457 932 q 449 1006 457 987 q 418 1045 441 1023 q 361 1084 396 1068 q 278 1100 326 1100 "},"Œ":{"ha":1528,"x_min":-35,"x_max":1872,"o":"m 811 842 q 821 762 821 804 q 774 611 821 672 q 659 550 727 550 q 547 595 603 550 q 501 710 501 631 q 523 807 501 760 q 590 884 545 854 q 701 914 636 914 q 622 844 647 884 q 597 762 597 804 q 605 720 597 742 q 623 688 612 699 q 671 667 643 667 q 756 716 715 667 q 811 842 798 766 m 842 158 l 878 -172 l 1867 -222 l 1872 72 l 1161 106 l 1139 439 l 1605 528 l 1589 772 l 1128 694 l 1117 905 l 1584 983 l 1567 1278 l 673 1132 q 608 1135 652 1135 q 470 1118 536 1135 q 341 1069 404 1101 q 222 991 279 1038 q 106 878 165 945 q 26 756 58 823 q -20 617 -5 690 q -35 473 -35 545 q -13 293 -35 381 q 49 138 9 204 q 139 39 89 72 q 403 -40 258 -40 q 620 7 508 -40 q 842 158 731 54 "},"œ":{"ha":1250,"x_min":-26,"x_max":1311,"o":"m 575 621 q 583 558 583 592 q 564 458 583 509 q 507 375 544 408 q 421 343 469 343 q 318 378 372 343 q 260 478 260 415 q 278 546 260 512 q 326 606 296 579 q 397 650 355 633 q 484 667 439 667 q 418 618 439 649 q 397 557 397 588 q 418 500 397 516 q 450 490 432 490 q 525 530 487 490 q 575 621 564 569 m 982 545 l 774 286 q 766 313 773 288 q 756 356 759 338 q 753 392 753 374 q 794 511 753 457 q 843 547 810 532 q 914 561 876 561 q 982 545 949 561 m 564 71 q 677 -3 603 21 q 843 -28 752 -28 q 1043 -2 941 -28 q 1218 71 1145 24 q 1311 172 1291 117 l 1147 370 q 1081 280 1118 318 q 999 221 1044 241 q 905 200 955 200 l 1278 644 q 1141 724 1219 697 q 978 750 1063 750 q 826 728 899 750 q 686 663 752 707 q 655 704 671 687 q 615 734 640 722 q 412 791 513 791 q 68 616 233 791 q -26 353 -26 516 q 7 173 -26 258 q 102 37 41 87 q 190 -10 138 8 q 300 -28 242 -28 q 435 -3 367 -28 q 564 71 503 21 "},"­":{"ha":486,"x_min":-5,"x_max":528,"o":"m 11 722 l -5 539 l 505 555 l 528 778 l 11 722 "},"†":{"ha":555,"x_min":11,"x_max":561,"o":"m 11 900 l 11 677 l 172 677 l 267 328 l 383 677 l 561 684 l 550 911 l 378 917 l 272 1105 l 161 911 l 11 900 "},"‡":{"ha":555,"x_min":5,"x_max":561,"o":"m 378 545 l 383 677 l 561 684 l 550 911 l 378 917 l 272 1105 l 161 911 l 11 900 l 11 677 l 172 677 l 167 545 l 5 545 l 5 322 l 155 311 l 267 117 l 372 306 l 545 311 l 555 539 l 378 545 "},"×":{"ha":694,"x_min":-17,"x_max":783,"o":"m -17 844 l 183 694 l 11 589 l 150 416 l 361 528 l 517 411 l 778 539 l 555 700 l 783 884 l 623 1006 l 389 817 q 354 846 387 817 q 258 935 321 876 q 172 1017 195 994 l -17 844 "},"Ð":{"ha":903,"x_min":-28,"x_max":956,"o":"m 595 928 q 653 846 636 913 q 671 684 671 779 q 664 552 671 611 q 650 478 656 493 q 603 398 642 446 q 450 300 565 349 l 444 406 l 555 406 l 550 689 l 429 689 l 416 917 q 505 947 459 947 q 595 928 538 947 m 861 1050 q 525 1214 781 1214 q 267 1182 406 1214 q -28 1100 129 1151 q 3 978 -18 1078 q 35 830 24 878 q 61 772 46 783 q 94 808 66 772 q 127 844 123 844 l 144 694 l 28 694 l 45 406 l 175 406 l 222 -28 l 505 22 q 691 88 607 35 q 833 228 774 142 q 924 422 892 313 q 956 648 956 530 q 946 782 956 714 q 915 918 936 850 q 861 1050 893 986 "},"ð":{"ha":694,"x_min":-26,"x_max":755,"o":"m 450 664 q 397 562 397 629 q 418 500 397 516 q 450 490 432 490 l 450 346 q 422 343 433 343 q 318 378 370 343 q 260 478 260 416 q 274 539 260 508 q 315 595 289 570 q 377 640 340 621 q 450 664 413 659 m 170 1350 l 261 1055 q 323 1150 287 1114 q 395 1186 359 1186 q 452 1154 426 1186 q 492 1055 477 1121 l 484 806 q 452 807 472 807 q 321 784 389 807 q 188 718 254 762 q 68 616 123 675 q -26 353 -26 516 q 7 173 -26 258 q 102 37 41 87 q 195 -10 138 8 q 315 -28 252 -28 q 472 3 398 -28 l 472 -39 l 755 -22 l 747 393 q 750 452 750 412 q 745 532 750 496 l 730 1211 q 684 1317 713 1284 q 591 1378 654 1350 q 411 1417 505 1417 q 170 1350 288 1417 "},"µ":{"ha":833,"x_min":-39,"x_max":897,"o":"m 311 -22 q 408 -25 375 -25 q 548 -13 484 -25 q 667 31 613 -1 q 783 144 723 63 q 861 300 844 226 q 897 519 897 446 q 893 592 897 563 q 867 761 889 621 l 583 778 q 585 685 585 745 q 581 575 585 625 q 568 483 576 525 q 545 394 560 441 q 511 300 530 348 q 456 231 483 231 q 378 328 420 231 q 361 381 368 350 q 352 450 355 412 q 349 541 349 488 q 361 806 349 645 l 28 844 q 17 596 17 758 q 16 445 17 509 q 12 339 15 380 l -39 -400 l 289 -406 l 311 -22 "},"¦":{"ha":416,"x_min":0,"x_max":400,"o":"m 383 539 l 0 511 l 0 -461 l 383 -400 l 383 539 m 18 672 l 393 689 l 400 1411 l 28 1322 l 18 672 "},"±":{"ha":625,"x_min":-22,"x_max":661,"o":"m 11 722 l -5 539 l 200 547 l 172 328 l 383 328 l 411 554 l 639 561 l 661 783 l 450 761 l 472 956 l 256 956 l 239 743 l 11 722 m 0 256 l -22 106 l 633 134 l 644 294 l 0 256 "}}}
